<svg width="1200" height="438" viewBox="0 0 1200 438" fill="none" xmlns="http://www.w3.org/2000/svg">
<rect x="407" width="793" height="438" rx="24" fill="#FEF0E6"/>
<rect y="71" width="387" height="256" rx="24" fill="#FFF6E3"/>
<path d="M0 95C0 81.7452 10.7452 71 24 71H363C376.255 71 387 81.7452 387 95V111H0V95Z" fill="#FBC55A"/>
<circle cx="193.5" cy="207.5" r="66.5" fill="#FBC55A"/>
<path d="M223 178.511L163 175.225V172.286L223 169V178.511Z" fill="white"/>
<path d="M223 192.207L163 188.92V185.982L223 182.696V192.207Z" fill="white"/>
<path d="M207.949 205.894L163 202.617V199.683L207.949 196.406V205.894Z" fill="white"/>
<path d="M207.949 219.594L163 216.317V213.383L207.949 210.106V219.594Z" fill="white"/>
<path d="M193 233.304L163 230.017V227.075L193 223.793V233.304Z" fill="white"/>
<path d="M193 247L163 243.713V240.775L193 237.489V247Z" fill="white"/>
<path d="M109.567 295.045H111.593C111.152 292.494 108.972 290.73 106.147 290.73C102.759 290.73 100.285 293.281 100.285 297.461C100.285 301.603 102.689 304.179 106.236 304.179C109.413 304.179 111.682 302.095 111.682 298.79V297.301H106.537V298.931H109.771C109.726 301.04 108.333 302.376 106.236 302.376C103.929 302.376 102.248 300.631 102.248 297.448C102.248 294.278 103.942 292.533 106.16 292.533C107.898 292.533 109.075 293.491 109.567 295.045ZM113.766 304H115.678V298.004C115.678 296.719 116.668 295.793 118.023 295.793C118.42 295.793 118.867 295.863 119.021 295.908V294.08C118.829 294.054 118.452 294.035 118.209 294.035C117.058 294.035 116.074 294.687 115.716 295.741H115.614V294.182H113.766V304ZM123.174 304.217C124.797 304.217 125.712 303.393 126.076 302.658H126.153V304H128.019V297.48C128.019 294.623 125.769 294.054 124.209 294.054C122.432 294.054 120.796 294.77 120.157 296.56L121.953 296.969C122.234 296.272 122.95 295.601 124.235 295.601C125.469 295.601 126.101 296.246 126.101 297.359V297.403C126.101 298.1 125.386 298.087 123.621 298.292C121.761 298.509 119.856 298.995 119.856 301.226C119.856 303.156 121.307 304.217 123.174 304.217ZM123.589 302.683C122.509 302.683 121.729 302.197 121.729 301.251C121.729 300.229 122.637 299.864 123.743 299.717C124.363 299.634 125.833 299.468 126.108 299.193V300.459C126.108 301.622 125.181 302.683 123.589 302.683ZM134.967 294.182H132.852V293.3C132.852 292.43 133.209 291.957 134.143 291.957C134.539 291.957 134.82 292.047 134.999 292.104L135.447 290.558C135.178 290.455 134.622 290.295 133.849 290.295C132.295 290.295 130.934 291.203 130.934 293.044V294.182H129.419V295.716H130.934V304H132.852V295.716H134.967V294.182ZM139.228 304.217C140.851 304.217 141.765 303.393 142.13 302.658H142.206V304H144.073V297.48C144.073 294.623 141.823 294.054 140.263 294.054C138.486 294.054 136.85 294.77 136.211 296.56L138.007 296.969C138.288 296.272 139.004 295.601 140.289 295.601C141.522 295.601 142.155 296.246 142.155 297.359V297.403C142.155 298.1 141.439 298.087 139.675 298.292C137.815 298.509 135.91 298.995 135.91 301.226C135.91 303.156 137.361 304.217 139.228 304.217ZM139.643 302.683C138.563 302.683 137.783 302.197 137.783 301.251C137.783 300.229 138.691 299.864 139.797 299.717C140.417 299.634 141.887 299.468 142.162 299.193V300.459C142.162 301.622 141.235 302.683 139.643 302.683ZM148.26 298.17C148.26 296.604 149.218 295.71 150.548 295.71C151.846 295.71 152.632 296.56 152.632 297.985V304H154.543V297.755C154.543 295.326 153.207 294.054 151.2 294.054C149.723 294.054 148.758 294.738 148.304 295.78H148.183V294.182H146.348V304H148.26V298.17ZM159.693 304.217C161.317 304.217 162.231 303.393 162.595 302.658H162.672V304H164.539V297.48C164.539 294.623 162.289 294.054 160.729 294.054C158.952 294.054 157.316 294.77 156.676 296.56L158.473 296.969C158.754 296.272 159.47 295.601 160.755 295.601C161.988 295.601 162.621 296.246 162.621 297.359V297.403C162.621 298.1 161.905 298.087 160.141 298.292C158.281 298.509 156.376 298.995 156.376 301.226C156.376 303.156 157.827 304.217 159.693 304.217ZM160.109 302.683C159.029 302.683 158.249 302.197 158.249 301.251C158.249 300.229 159.157 299.864 160.262 299.717C160.882 299.634 162.353 299.468 162.627 299.193V300.459C162.627 301.622 161.701 302.683 160.109 302.683ZM171.461 304H173.437V298.292H178.998V296.598H173.437V292.609H179.579V290.909H171.461V304ZM184.407 304.217C186.031 304.217 186.945 303.393 187.309 302.658H187.386V304H189.252V297.48C189.252 294.623 187.002 294.054 185.442 294.054C183.665 294.054 182.029 294.77 181.39 296.56L183.186 296.969C183.467 296.272 184.183 295.601 185.468 295.601C186.702 295.601 187.334 296.246 187.334 297.359V297.403C187.334 298.1 186.619 298.087 184.854 298.292C182.994 298.509 181.089 298.995 181.089 301.226C181.089 303.156 182.54 304.217 184.407 304.217ZM184.822 302.683C183.742 302.683 182.962 302.197 182.962 301.251C182.962 300.229 183.87 299.864 184.976 299.717C185.596 299.634 187.066 299.468 187.341 299.193V300.459C187.341 301.622 186.414 302.683 184.822 302.683ZM191.528 304H193.439V298.004C193.439 296.719 194.43 295.793 195.785 295.793C196.181 295.793 196.629 295.863 196.782 295.908V294.08C196.59 294.054 196.213 294.035 195.97 294.035C194.82 294.035 193.835 294.687 193.477 295.741H193.375V294.182H191.528V304ZM201.95 304.198C204.718 304.198 206.527 302.172 206.527 299.136C206.527 296.08 204.718 294.054 201.95 294.054C199.182 294.054 197.373 296.08 197.373 299.136C197.373 302.172 199.182 304.198 201.95 304.198ZM201.956 302.594C200.147 302.594 199.304 301.015 199.304 299.129C199.304 297.25 200.147 295.652 201.956 295.652C203.753 295.652 204.596 297.25 204.596 299.129C204.596 301.015 203.753 302.594 201.956 302.594ZM215.6 304H217.595L220.35 294.195H220.452L223.207 304H225.195L228.832 290.909H226.748L224.204 301.053H224.083L221.43 290.909H219.372L216.719 301.047H216.598L214.047 290.909H211.97L215.6 304ZM233.474 304.198C235.616 304.198 237.13 303.143 237.565 301.545L235.756 301.219C235.411 302.146 234.58 302.619 233.493 302.619C231.857 302.619 230.758 301.558 230.706 299.666H237.687V298.989C237.687 295.441 235.564 294.054 233.34 294.054C230.604 294.054 228.802 296.138 228.802 299.155C228.802 302.204 230.579 304.198 233.474 304.198ZM230.713 298.234C230.79 296.841 231.799 295.633 233.353 295.633C234.836 295.633 235.807 296.732 235.814 298.234H230.713ZM239.691 304H241.557V302.472H241.717C242.062 303.099 242.765 304.192 244.555 304.192C246.933 304.192 248.659 302.287 248.659 299.11C248.659 295.927 246.907 294.054 244.536 294.054C242.714 294.054 242.056 295.166 241.717 295.773H241.602V290.909H239.691V304ZM241.563 299.091C241.563 297.039 242.458 295.678 244.127 295.678C245.859 295.678 246.728 297.141 246.728 299.091C246.728 301.06 245.833 302.562 244.127 302.562C242.484 302.562 241.563 301.156 241.563 299.091ZM262.322 294.348H264.227C264.169 292.251 262.315 290.73 259.656 290.73C257.029 290.73 255.016 292.232 255.016 294.489C255.016 296.31 256.32 297.378 258.423 297.947L259.969 298.369C261.369 298.739 262.45 299.2 262.45 300.363C262.45 301.641 261.229 302.485 259.548 302.485C258.026 302.485 256.761 301.808 256.646 300.382H254.664C254.792 302.754 256.626 304.217 259.56 304.217C262.635 304.217 264.405 302.6 264.405 300.382C264.405 298.023 262.303 297.109 260.641 296.7L259.362 296.368C258.339 296.106 256.978 295.626 256.984 294.374C256.984 293.261 258.001 292.437 259.611 292.437C261.114 292.437 262.181 293.14 262.322 294.348ZM270.734 304C274.722 304 277.03 301.526 277.03 297.435C277.03 293.364 274.722 290.909 270.868 290.909H266.496V304H270.734ZM268.471 302.274V292.635H270.746C273.61 292.635 275.087 294.348 275.087 297.435C275.087 300.536 273.61 302.274 270.625 302.274H268.471ZM279.216 304H281.191V299.928L282.738 298.151L286.97 304H289.347L284.048 296.803L289.328 290.909H286.842L281.351 297.161H281.191V290.909H279.216V304Z" fill="black"/>
<path d="M129.177 96H131.275L133.209 89.343H133.288L135.227 96H137.325L140.239 85.8182H137.887L136.202 92.9077H136.112L134.258 85.8182H132.244L130.385 92.8928H130.3L128.615 85.8182H126.263L129.177 96ZM141.181 96H148.061V94.2251H143.334V91.794H147.689V90.0192H143.334V87.593H148.042V85.8182H141.181V96ZM149.543 96H153.893C156.18 96 157.398 94.8068 157.398 93.1861C157.398 91.6797 156.319 90.7699 155.161 90.7152V90.6158C156.22 90.3771 157 89.6264 157 88.4283C157 86.902 155.867 85.8182 153.62 85.8182H149.543V96ZM151.696 94.2401V91.5355H153.5C154.535 91.5355 155.176 92.1321 155.176 92.9723C155.176 93.7379 154.654 94.2401 153.451 94.2401H151.696ZM151.696 90.0788V87.5582H153.331C154.286 87.5582 154.828 88.0504 154.828 88.7862C154.828 89.5916 154.172 90.0788 153.292 90.0788H151.696ZM163.374 96L164.13 93.6783H167.804L168.56 96H170.866L167.356 85.8182H164.582L161.067 96H163.374ZM164.677 91.9979L165.93 88.1449H166.009L167.262 91.9979H164.677ZM171.882 96H174.035V92.6989H175.844C178.186 92.6989 179.548 91.3018 179.548 89.2685C179.548 87.245 178.211 85.8182 175.899 85.8182H171.882V96ZM174.035 90.9737V87.5781H175.486C176.729 87.5781 177.331 88.2543 177.331 89.2685C177.331 90.2777 176.729 90.9737 175.496 90.9737H174.035ZM180.736 96H182.889V92.6989H184.699C187.04 92.6989 188.402 91.3018 188.402 89.2685C188.402 87.245 187.065 85.8182 184.753 85.8182H180.736V96ZM182.889 90.9737V87.5781H184.341C185.584 87.5781 186.185 88.2543 186.185 89.2685C186.185 90.2777 185.584 90.9737 184.351 90.9737H182.889ZM189.591 96H196.108V94.2251H191.743V85.8182H189.591V96ZM199.477 85.8182H197.324V96H199.477V85.8182ZM210.022 89.3828C209.738 87.0312 207.958 85.679 205.602 85.679C202.912 85.679 200.859 87.5781 200.859 90.9091C200.859 94.2301 202.877 96.1392 205.602 96.1392C208.212 96.1392 209.788 94.4041 210.022 92.5298L207.844 92.5199C207.64 93.6087 206.785 94.2351 205.637 94.2351C204.09 94.2351 203.041 93.0866 203.041 90.9091C203.041 88.7912 204.076 87.5831 205.652 87.5831C206.83 87.5831 207.68 88.2642 207.844 89.3828H210.022ZM212.919 96L213.675 93.6783H217.349L218.104 96H220.411L216.901 85.8182H214.127L210.612 96H212.919ZM214.221 91.9979L215.474 88.1449H215.554L216.807 91.9979H214.221ZM219.781 87.593H222.898V96H225.026V87.593H228.143V85.8182H219.781V87.593ZM231.463 85.8182H229.31V96H231.463V85.8182ZM242.381 90.9091C242.381 87.5781 240.312 85.679 237.613 85.679C234.898 85.679 232.845 87.5781 232.845 90.9091C232.845 94.2251 234.898 96.1392 237.613 96.1392C240.312 96.1392 242.381 94.2401 242.381 90.9091ZM240.198 90.9091C240.198 93.0668 239.174 94.2351 237.613 94.2351C236.047 94.2351 235.028 93.0668 235.028 90.9091C235.028 88.7514 236.047 87.5831 237.613 87.5831C239.174 87.5831 240.198 88.7514 240.198 90.9091ZM252.282 85.8182H250.139V92.2216H250.049L245.654 85.8182H243.765V96H245.918V89.5916H245.993L250.422 96H252.282V85.8182Z" fill="black"/>
<path d="M476.707 207.707C477.098 207.317 477.098 206.683 476.707 206.293L470.343 199.929C469.953 199.538 469.319 199.538 468.929 199.929C468.538 200.319 468.538 200.953 468.929 201.343L474.586 207L468.929 212.657C468.538 213.047 468.538 213.681 468.929 214.071C469.319 214.462 469.953 214.462 470.343 214.071L476.707 207.707ZM258 208L476 208V206L258 206V208Z" fill="#A0A0B1"/>
<rect x="289" y="180" width="155" height="55" rx="27.5" fill="white"/>
<path d="M320.238 188.273H318.964V197H320.238V188.273ZM324.709 197.132C326.555 197.132 327.76 195.781 327.76 193.757C327.76 191.72 326.555 190.369 324.709 190.369C322.864 190.369 321.658 191.72 321.658 193.757C321.658 195.781 322.864 197.132 324.709 197.132ZM324.714 196.062C323.508 196.062 322.945 195.01 322.945 193.753C322.945 192.5 323.508 191.435 324.714 191.435C325.911 191.435 326.474 192.5 326.474 193.753C326.474 195.01 325.911 196.062 324.714 196.062ZM331.927 199.591C333.593 199.591 334.88 198.828 334.88 197.145V190.455H333.632V191.516H333.538C333.312 191.111 332.86 190.369 331.642 190.369C330.061 190.369 328.897 191.618 328.897 193.702C328.897 195.79 330.086 196.902 331.633 196.902C332.835 196.902 333.299 196.224 333.529 195.807H333.61V197.094C333.61 198.121 332.907 198.564 331.94 198.564C330.879 198.564 330.465 198.031 330.24 197.656L329.144 198.108C329.49 198.909 330.363 199.591 331.927 199.591ZM331.914 195.845C330.776 195.845 330.184 194.972 330.184 193.685C330.184 192.428 330.764 191.452 331.914 191.452C333.026 191.452 333.623 192.359 333.623 193.685C333.623 195.036 333.014 195.845 331.914 195.845ZM341.494 192.053C341.23 191.034 340.433 190.369 339.018 190.369C337.539 190.369 336.491 191.149 336.491 192.308C336.491 193.237 337.053 193.855 338.281 194.128L339.389 194.371C340.019 194.511 340.313 194.793 340.313 195.202C340.313 195.709 339.772 196.105 338.937 196.105C338.174 196.105 337.684 195.777 337.531 195.134L336.299 195.321C336.512 196.48 337.475 197.132 338.945 197.132C340.526 197.132 341.622 196.293 341.622 195.108C341.622 194.183 341.034 193.612 339.832 193.335L338.792 193.097C338.072 192.926 337.761 192.683 337.765 192.24C337.761 191.737 338.306 191.379 339.031 191.379C339.823 191.379 340.19 191.818 340.339 192.257L341.494 192.053ZM344.68 195.807H343.453L343.41 196.284C343.312 197.439 343.04 198.602 342.925 199.131H343.828C344.032 198.572 344.484 197.294 344.616 196.271L344.68 195.807ZM352.336 197.132C353.763 197.132 354.773 196.429 355.063 195.364L353.857 195.146C353.627 195.764 353.073 196.08 352.349 196.08C351.258 196.08 350.525 195.372 350.491 194.111H355.144V193.659C355.144 191.294 353.729 190.369 352.246 190.369C350.422 190.369 349.221 191.759 349.221 193.77C349.221 195.803 350.405 197.132 352.336 197.132ZM350.495 193.156C350.546 192.227 351.219 191.422 352.255 191.422C353.243 191.422 353.891 192.155 353.895 193.156H350.495ZM357.411 190.455H356.013L358.025 193.727L355.988 197H357.385L358.856 194.554L360.33 197H361.724L359.665 193.727L361.706 190.455H360.313L358.856 193.003L357.411 190.455ZM365.502 197.132C367.049 197.132 368.051 196.203 368.191 194.929H366.951C366.789 195.636 366.24 196.054 365.511 196.054C364.433 196.054 363.738 195.155 363.738 193.727C363.738 192.325 364.445 191.443 365.511 191.443C366.32 191.443 366.815 191.955 366.951 192.568H368.191C368.055 191.247 366.977 190.369 365.49 190.369C363.644 190.369 362.451 191.759 362.451 193.757C362.451 195.73 363.602 197.132 365.502 197.132ZM372.375 197.132C373.802 197.132 374.812 196.429 375.102 195.364L373.896 195.146C373.666 195.764 373.112 196.08 372.388 196.08C371.297 196.08 370.564 195.372 370.53 194.111H375.183V193.659C375.183 191.294 373.768 190.369 372.285 190.369C370.461 190.369 369.26 191.759 369.26 193.77C369.26 195.803 370.444 197.132 372.375 197.132ZM370.534 193.156C370.585 192.227 371.258 191.422 372.294 191.422C373.282 191.422 373.93 192.155 373.934 193.156H370.534ZM376.597 199.455H377.871V195.982H377.948C378.178 196.399 378.646 197.128 379.84 197.128C381.425 197.128 382.575 195.858 382.575 193.74C382.575 191.618 381.408 190.369 379.827 190.369C378.612 190.369 378.173 191.111 377.948 191.516H377.841V190.455H376.597V199.455ZM377.845 193.727C377.845 192.359 378.442 191.452 379.554 191.452C380.709 191.452 381.289 192.428 381.289 193.727C381.289 195.04 380.692 196.041 379.554 196.041C378.459 196.041 377.845 195.104 377.845 193.727ZM387.058 190.455H385.716V188.886H384.442V190.455H383.483V191.477H384.442V195.342C384.438 196.531 385.345 197.107 386.351 197.085C386.756 197.081 387.029 197.004 387.178 196.949L386.948 195.896C386.862 195.913 386.705 195.952 386.5 195.952C386.087 195.952 385.716 195.815 385.716 195.078V191.477H387.058V190.455ZM388.468 197H389.742V190.455H388.468V197ZM389.111 189.445C389.55 189.445 389.917 189.104 389.917 188.686C389.917 188.268 389.55 187.923 389.111 187.923C388.668 187.923 388.306 188.268 388.306 188.686C388.306 189.104 388.668 189.445 389.111 189.445ZM394.213 197.132C396.058 197.132 397.264 195.781 397.264 193.757C397.264 191.72 396.058 190.369 394.213 190.369C392.368 190.369 391.162 191.72 391.162 193.757C391.162 195.781 392.368 197.132 394.213 197.132ZM394.218 196.062C393.012 196.062 392.449 195.01 392.449 193.753C392.449 192.5 393.012 191.435 394.218 191.435C395.415 191.435 395.977 192.5 395.977 193.753C395.977 195.01 395.415 196.062 394.218 196.062ZM399.961 193.114C399.961 192.07 400.6 191.473 401.486 191.473C402.351 191.473 402.876 192.04 402.876 192.99V197H404.15V192.837C404.15 191.217 403.259 190.369 401.921 190.369C400.937 190.369 400.293 190.825 399.991 191.52H399.91V190.455H398.687V197H399.961V193.114ZM410.763 192.053C410.499 191.034 409.702 190.369 408.287 190.369C406.809 190.369 405.76 191.149 405.76 192.308C405.76 193.237 406.323 193.855 407.55 194.128L408.658 194.371C409.289 194.511 409.583 194.793 409.583 195.202C409.583 195.709 409.042 196.105 408.206 196.105C407.444 196.105 406.954 195.777 406.8 195.134L405.569 195.321C405.782 196.48 406.745 197.132 408.215 197.132C409.796 197.132 410.891 196.293 410.891 195.108C410.891 194.183 410.303 193.612 409.101 193.335L408.062 193.097C407.341 192.926 407.03 192.683 407.035 192.24C407.03 191.737 407.576 191.379 408.3 191.379C409.093 191.379 409.459 191.818 409.608 192.257L410.763 192.053ZM413.95 195.807H412.722L412.68 196.284C412.582 197.439 412.309 198.602 412.194 199.131H413.097C413.302 198.572 413.754 197.294 413.886 196.271L413.95 195.807ZM299.118 212H300.392V207.964C300.392 207.082 301.01 206.469 301.735 206.469C302.442 206.469 302.932 206.938 302.932 207.649V212H304.202V207.828C304.202 207.04 304.684 206.469 305.515 206.469C306.188 206.469 306.742 206.844 306.742 207.73V212H308.016V207.611C308.016 206.115 307.181 205.369 305.996 205.369C305.054 205.369 304.347 205.821 304.032 206.52H303.963C303.678 205.804 303.077 205.369 302.203 205.369C301.338 205.369 300.695 205.8 300.422 206.52H300.341V205.455H299.118V212ZM312.545 212.132C313.972 212.132 314.982 211.429 315.272 210.364L314.066 210.146C313.836 210.764 313.282 211.08 312.558 211.08C311.467 211.08 310.734 210.372 310.7 209.111H315.353V208.659C315.353 206.294 313.938 205.369 312.455 205.369C310.631 205.369 309.43 206.759 309.43 208.77C309.43 210.803 310.614 212.132 312.545 212.132ZM310.704 208.156C310.755 207.227 311.428 206.422 312.464 206.422C313.452 206.422 314.1 207.155 314.104 208.156H310.704ZM318.672 212.145C319.754 212.145 320.363 211.595 320.606 211.105H320.657V212H321.902V207.653C321.902 205.749 320.402 205.369 319.362 205.369C318.177 205.369 317.086 205.847 316.66 207.04L317.858 207.312C318.045 206.848 318.522 206.401 319.379 206.401C320.201 206.401 320.623 206.831 320.623 207.572V207.602C320.623 208.067 320.146 208.058 318.97 208.195C317.73 208.339 316.46 208.663 316.46 210.151C316.46 211.438 317.427 212.145 318.672 212.145ZM318.949 211.122C318.228 211.122 317.708 210.798 317.708 210.168C317.708 209.486 318.314 209.243 319.051 209.145C319.464 209.089 320.444 208.979 320.627 208.795V209.639C320.627 210.415 320.01 211.122 318.949 211.122ZM328.504 207.053C328.239 206.034 327.442 205.369 326.028 205.369C324.549 205.369 323.501 206.149 323.501 207.308C323.501 208.237 324.063 208.855 325.29 209.128L326.398 209.371C327.029 209.511 327.323 209.793 327.323 210.202C327.323 210.709 326.782 211.105 325.947 211.105C325.184 211.105 324.694 210.777 324.54 210.134L323.309 210.321C323.522 211.48 324.485 212.132 325.955 212.132C327.536 212.132 328.631 211.293 328.631 210.108C328.631 209.183 328.043 208.612 326.842 208.335L325.802 208.097C325.082 207.926 324.771 207.683 324.775 207.24C324.771 206.737 325.316 206.379 326.04 206.379C326.833 206.379 327.2 206.818 327.349 207.257L328.504 207.053ZM334.179 209.286C334.183 210.398 333.356 210.926 332.64 210.926C331.852 210.926 331.306 210.355 331.306 209.464V205.455H330.032V209.618C330.032 211.241 330.923 212.085 332.18 212.085C333.164 212.085 333.833 211.565 334.136 210.866H334.204V212H335.457V205.455H334.179V209.286ZM337.169 212H338.443V208.003C338.443 207.146 339.104 206.528 340.007 206.528C340.271 206.528 340.57 206.575 340.672 206.605V205.386C340.544 205.369 340.293 205.357 340.131 205.357C339.364 205.357 338.707 205.791 338.469 206.494H338.401V205.455H337.169V212ZM344.361 212.132C345.789 212.132 346.799 211.429 347.088 210.364L345.882 210.146C345.652 210.764 345.098 211.08 344.374 211.08C343.283 211.08 342.55 210.372 342.516 209.111H347.169V208.659C347.169 206.294 345.755 205.369 344.272 205.369C342.448 205.369 341.246 206.759 341.246 208.77C341.246 210.803 342.431 212.132 344.361 212.132ZM342.52 208.156C342.571 207.227 343.245 206.422 344.28 206.422C345.269 206.422 345.917 207.155 345.921 208.156H342.52ZM348.583 212H349.857V207.964C349.857 207.082 350.475 206.469 351.2 206.469C351.907 206.469 352.397 206.938 352.397 207.649V212H353.667V207.828C353.667 207.04 354.148 206.469 354.979 206.469C355.653 206.469 356.207 206.844 356.207 207.73V212H357.481V207.611C357.481 206.115 356.646 205.369 355.461 205.369C354.519 205.369 353.812 205.821 353.496 206.52H353.428C353.143 205.804 352.542 205.369 351.668 205.369C350.803 205.369 350.16 205.8 349.887 206.52H349.806V205.455H348.583V212ZM362.01 212.132C363.437 212.132 364.447 211.429 364.737 210.364L363.531 210.146C363.301 210.764 362.747 211.08 362.022 211.08C360.931 211.08 360.199 210.372 360.164 209.111H364.818V208.659C364.818 206.294 363.403 205.369 361.92 205.369C360.096 205.369 358.895 206.759 358.895 208.77C358.895 210.803 360.079 212.132 362.01 212.132ZM360.169 208.156C360.22 207.227 360.893 206.422 361.929 206.422C362.917 206.422 363.565 207.155 363.569 208.156H360.169ZM367.506 208.114C367.506 207.07 368.145 206.473 369.031 206.473C369.896 206.473 370.42 207.04 370.42 207.99V212H371.695V207.837C371.695 206.217 370.804 205.369 369.466 205.369C368.482 205.369 367.838 205.825 367.536 206.52H367.455V205.455H366.232V212H367.506V208.114ZM376.459 205.455H375.116V203.886H373.842V205.455H372.884V206.477H373.842V210.342C373.838 211.531 374.746 212.107 375.751 212.085C376.156 212.081 376.429 212.004 376.578 211.949L376.348 210.896C376.263 210.913 376.105 210.952 375.901 210.952C375.487 210.952 375.116 210.815 375.116 210.078V206.477H376.459V205.455ZM382.668 207.053C382.403 206.034 381.607 205.369 380.192 205.369C378.713 205.369 377.665 206.149 377.665 207.308C377.665 208.237 378.227 208.855 379.455 209.128L380.562 209.371C381.193 209.511 381.487 209.793 381.487 210.202C381.487 210.709 380.946 211.105 380.111 211.105C379.348 211.105 378.858 210.777 378.705 210.134L377.473 210.321C377.686 211.48 378.649 212.132 380.119 212.132C381.7 212.132 382.795 211.293 382.795 210.108C382.795 209.183 382.207 208.612 381.006 208.335L379.966 208.097C379.246 207.926 378.935 207.683 378.939 207.24C378.935 206.737 379.48 206.379 380.205 206.379C380.997 206.379 381.364 206.818 381.513 207.257L382.668 207.053ZM385.854 210.807H384.627L384.584 211.284C384.486 212.439 384.213 213.602 384.098 214.131H385.002C385.206 213.572 385.658 212.294 385.79 211.271L385.854 210.807ZM393.51 212.132C394.937 212.132 395.947 211.429 396.237 210.364L395.031 210.146C394.801 210.764 394.247 211.08 393.522 211.08C392.431 211.08 391.699 210.372 391.664 209.111H396.318V208.659C396.318 206.294 394.903 205.369 393.42 205.369C391.596 205.369 390.395 206.759 390.395 208.77C390.395 210.803 391.579 212.132 393.51 212.132ZM391.669 208.156C391.72 207.227 392.393 206.422 393.429 206.422C394.417 206.422 395.065 207.155 395.069 208.156H391.669ZM403.132 205.455H401.764L400.11 210.491H400.042L398.385 205.455H397.017L399.395 212H400.758L403.132 205.455ZM406.916 212.132C408.343 212.132 409.353 211.429 409.643 210.364L408.437 210.146C408.207 210.764 407.653 211.08 406.929 211.08C405.838 211.08 405.105 210.372 405.071 209.111H409.724V208.659C409.724 206.294 408.309 205.369 406.826 205.369C405.002 205.369 403.801 206.759 403.801 208.77C403.801 210.803 404.985 212.132 406.916 212.132ZM405.075 208.156C405.126 207.227 405.799 206.422 406.835 206.422C407.824 206.422 408.471 207.155 408.475 208.156H405.075ZM412.412 208.114C412.412 207.07 413.051 206.473 413.938 206.473C414.803 206.473 415.327 207.04 415.327 207.99V212H416.601V207.837C416.601 206.217 415.71 205.369 414.372 205.369C413.388 205.369 412.744 205.825 412.442 206.52H412.361V205.455H411.138V212H412.412V208.114ZM421.365 205.455H420.023V203.886H418.749V205.455H417.79V206.477H418.749V210.342C418.744 211.531 419.652 212.107 420.658 212.085C421.062 212.081 421.335 212.004 421.484 211.949L421.254 210.896C421.169 210.913 421.011 210.952 420.807 210.952C420.393 210.952 420.023 210.815 420.023 210.078V206.477H421.365V205.455ZM427.574 207.053C427.31 206.034 426.513 205.369 425.098 205.369C423.619 205.369 422.571 206.149 422.571 207.308C422.571 208.237 423.134 208.855 424.361 209.128L425.469 209.371C426.099 209.511 426.393 209.793 426.393 210.202C426.393 210.709 425.852 211.105 425.017 211.105C424.254 211.105 423.764 210.777 423.611 210.134L422.379 210.321C422.592 211.48 423.555 212.132 425.026 212.132C426.607 212.132 427.702 211.293 427.702 210.108C427.702 209.183 427.114 208.612 425.912 208.335L424.872 208.097C424.152 207.926 423.841 207.683 423.845 207.24C423.841 206.737 424.386 206.379 425.111 206.379C425.903 206.379 426.27 206.818 426.419 207.257L427.574 207.053ZM430.76 210.807H429.533L429.49 211.284C429.392 212.439 429.12 213.602 429.005 214.131H429.908C430.113 213.572 430.564 212.294 430.696 211.271L430.76 210.807ZM324.756 220.455H323.413V218.886H322.139V220.455H321.18V221.477H322.139V225.342C322.135 226.531 323.043 227.107 324.048 227.085C324.453 227.081 324.726 227.004 324.875 226.949L324.645 225.896C324.56 225.913 324.402 225.952 324.197 225.952C323.784 225.952 323.413 225.815 323.413 225.078V221.477H324.756V220.455ZM326.165 227H327.439V223.003C327.439 222.146 328.1 221.528 329.003 221.528C329.267 221.528 329.566 221.575 329.668 221.605V220.386C329.54 220.369 329.289 220.357 329.127 220.357C328.36 220.357 327.703 220.791 327.465 221.494H327.397V220.455H326.165V227ZM332.617 227.145C333.699 227.145 334.309 226.595 334.551 226.105H334.603V227H335.847V222.653C335.847 220.749 334.347 220.369 333.307 220.369C332.123 220.369 331.032 220.847 330.605 222.04L331.803 222.312C331.99 221.848 332.468 221.401 333.324 221.401C334.147 221.401 334.569 221.831 334.569 222.572V222.602C334.569 223.067 334.091 223.058 332.915 223.195C331.675 223.339 330.405 223.663 330.405 225.151C330.405 226.438 331.373 227.145 332.617 227.145ZM332.894 226.122C332.174 226.122 331.654 225.798 331.654 225.168C331.654 224.486 332.259 224.243 332.996 224.145C333.409 224.089 334.39 223.979 334.573 223.795V224.639C334.573 225.415 333.955 226.122 332.894 226.122ZM340.301 227.132C341.848 227.132 342.849 226.203 342.99 224.929H341.75C341.588 225.636 341.038 226.054 340.31 226.054C339.232 226.054 338.537 225.155 338.537 223.727C338.537 222.325 339.244 221.443 340.31 221.443C341.119 221.443 341.614 221.955 341.75 222.568H342.99C342.854 221.247 341.776 220.369 340.288 220.369C338.443 220.369 337.25 221.759 337.25 223.757C337.25 225.73 338.401 227.132 340.301 227.132ZM347.174 227.132C348.601 227.132 349.611 226.429 349.901 225.364L348.695 225.146C348.465 225.764 347.911 226.08 347.186 226.08C346.096 226.08 345.363 225.372 345.328 224.111H349.982V223.659C349.982 221.294 348.567 220.369 347.084 220.369C345.26 220.369 344.059 221.759 344.059 223.77C344.059 225.803 345.243 227.132 347.174 227.132ZM345.333 223.156C345.384 222.227 346.057 221.422 347.093 221.422C348.081 221.422 348.729 222.155 348.733 223.156H345.333ZM356.3 222.053C356.036 221.034 355.239 220.369 353.825 220.369C352.346 220.369 351.298 221.149 351.298 222.308C351.298 223.237 351.86 223.855 353.087 224.128L354.195 224.371C354.826 224.511 355.12 224.793 355.12 225.202C355.12 225.709 354.579 226.105 353.744 226.105C352.981 226.105 352.491 225.777 352.337 225.134L351.106 225.321C351.319 226.48 352.282 227.132 353.752 227.132C355.333 227.132 356.428 226.293 356.428 225.108C356.428 224.183 355.84 223.612 354.638 223.335L353.599 223.097C352.879 222.926 352.567 222.683 352.572 222.24C352.567 221.737 353.113 221.379 353.837 221.379C354.63 221.379 354.996 221.818 355.146 222.257L356.3 222.053ZM366.604 220.455H365.237L363.583 225.491H363.515L361.857 220.455H360.489L362.867 227H364.231L366.604 220.455ZM367.802 227H369.076V220.455H367.802V227ZM368.445 219.445C368.884 219.445 369.251 219.104 369.251 218.686C369.251 218.268 368.884 217.923 368.445 217.923C368.002 217.923 367.64 218.268 367.64 218.686C367.64 219.104 368.002 219.445 368.445 219.445ZM372.695 227.145C373.777 227.145 374.387 226.595 374.63 226.105H374.681V227H375.925V222.653C375.925 220.749 374.425 220.369 373.385 220.369C372.201 220.369 371.11 220.847 370.684 222.04L371.881 222.312C372.069 221.848 372.546 221.401 373.402 221.401C374.225 221.401 374.647 221.831 374.647 222.572V222.602C374.647 223.067 374.169 223.058 372.993 223.195C371.753 223.339 370.483 223.663 370.483 225.151C370.483 226.438 371.451 227.145 372.695 227.145ZM372.972 226.122C372.252 226.122 371.732 225.798 371.732 225.168C371.732 224.486 372.337 224.243 373.074 224.145C373.488 224.089 374.468 223.979 374.651 223.795V224.639C374.651 225.415 374.033 226.122 372.972 226.122ZM380.9 227H382.217V223.195H386.568V227H387.889V218.273H386.568V222.065H382.217V218.273H380.9V227ZM389.376 219.406H392.095V227H393.407V219.406H396.13V218.273H389.376V219.406ZM397.192 219.406H399.911V227H401.224V219.406H403.947V218.273H397.192V219.406ZM405.439 227H406.756V223.932H408.546C410.57 223.932 411.571 222.709 411.571 221.098C411.571 219.491 410.578 218.273 408.55 218.273H405.439V227ZM406.756 222.815V219.402H408.409C409.713 219.402 410.246 220.109 410.246 221.098C410.246 222.087 409.713 222.815 408.426 222.815H406.756Z" fill="black"/>
<rect x="289" y="180" width="155" height="55" rx="27.5" stroke="#A0A0B1" stroke-width="2"/>
<rect x="476" y="143" width="133" height="133" rx="24" fill="#FB9D5A"/>
<path d="M497.885 175.04H499.686C499.294 172.773 497.357 171.205 494.846 171.205C491.834 171.205 489.635 173.472 489.635 177.188C489.635 180.869 491.772 183.159 494.925 183.159C497.749 183.159 499.766 181.307 499.766 178.369V177.045H495.192V178.494H498.067C498.027 180.369 496.789 181.557 494.925 181.557C492.874 181.557 491.38 180.006 491.38 177.176C491.38 174.358 492.885 172.807 494.857 172.807C496.402 172.807 497.448 173.659 497.885 175.04ZM501.618 183H503.317V177.67C503.317 176.528 504.198 175.705 505.402 175.705C505.755 175.705 506.152 175.767 506.289 175.807V174.182C506.118 174.159 505.783 174.142 505.567 174.142C504.544 174.142 503.669 174.722 503.351 175.659H503.26V174.273H501.618V183ZM509.981 183.193C511.424 183.193 512.236 182.46 512.56 181.807H512.628V183H514.287V177.205C514.287 174.665 512.287 174.159 510.901 174.159C509.321 174.159 507.867 174.795 507.299 176.386L508.895 176.75C509.145 176.131 509.782 175.534 510.924 175.534C512.02 175.534 512.583 176.108 512.583 177.097V177.136C512.583 177.756 511.946 177.744 510.378 177.926C508.725 178.119 507.032 178.551 507.032 180.534C507.032 182.25 508.321 183.193 509.981 183.193ZM510.35 181.83C509.39 181.83 508.696 181.398 508.696 180.557C508.696 179.648 509.503 179.324 510.486 179.193C511.037 179.119 512.344 178.972 512.589 178.727V179.852C512.589 180.886 511.765 181.83 510.35 181.83ZM520.464 174.273H518.583V173.489C518.583 172.716 518.901 172.295 519.731 172.295C520.083 172.295 520.333 172.375 520.492 172.426L520.89 171.051C520.651 170.96 520.157 170.818 519.469 170.818C518.089 170.818 516.878 171.625 516.878 173.261V174.273H515.532V175.636H516.878V183H518.583V175.636H520.464V174.273ZM524.251 183.193C525.694 183.193 526.506 182.46 526.83 181.807H526.898V183H528.557V177.205C528.557 174.665 526.557 174.159 525.171 174.159C523.591 174.159 522.137 174.795 521.569 176.386L523.165 176.75C523.415 176.131 524.052 175.534 525.194 175.534C526.29 175.534 526.853 176.108 526.853 177.097V177.136C526.853 177.756 526.216 177.744 524.648 177.926C522.995 178.119 521.302 178.551 521.302 180.534C521.302 182.25 522.591 183.193 524.251 183.193ZM524.62 181.83C523.66 181.83 522.966 181.398 522.966 180.557C522.966 179.648 523.773 179.324 524.756 179.193C525.307 179.119 526.614 178.972 526.859 178.727V179.852C526.859 180.886 526.035 181.83 524.62 181.83ZM532.279 177.818C532.279 176.426 533.131 175.631 534.313 175.631C535.467 175.631 536.165 176.386 536.165 177.653V183H537.864V177.449C537.864 175.29 536.677 174.159 534.893 174.159C533.58 174.159 532.722 174.767 532.319 175.693H532.211V174.273H530.58V183H532.279V177.818ZM542.442 183.193C543.886 183.193 544.698 182.46 545.022 181.807H545.09V183H546.749V177.205C546.749 174.665 544.749 174.159 543.363 174.159C541.783 174.159 540.329 174.795 539.761 176.386L541.357 176.75C541.607 176.131 542.244 175.534 543.386 175.534C544.482 175.534 545.045 176.108 545.045 177.097V177.136C545.045 177.756 544.408 177.744 542.84 177.926C541.187 178.119 539.494 178.551 539.494 180.534C539.494 182.25 540.783 183.193 542.442 183.193ZM542.812 181.83C541.852 181.83 541.158 181.398 541.158 180.557C541.158 179.648 541.965 179.324 542.948 179.193C543.499 179.119 544.806 178.972 545.05 178.727V179.852C545.05 180.886 544.227 181.83 542.812 181.83ZM553.886 183L554.954 179.92H559.499L560.562 183H562.426L558.238 171.364H556.21L552.022 183H553.886ZM555.465 178.443L557.181 173.477H557.272L558.988 178.443H555.465ZM567.248 186.455C569.47 186.455 571.186 185.438 571.186 183.193V174.273H569.521V175.688H569.396C569.095 175.148 568.492 174.159 566.867 174.159C564.759 174.159 563.208 175.824 563.208 178.602C563.208 181.386 564.793 182.869 566.856 182.869C568.458 182.869 569.078 181.966 569.384 181.409H569.492V183.125C569.492 184.494 568.555 185.085 567.265 185.085C565.85 185.085 565.299 184.375 564.998 183.875L563.538 184.477C563.998 185.545 565.163 186.455 567.248 186.455ZM567.231 181.46C565.714 181.46 564.924 180.295 564.924 178.58C564.924 176.903 565.697 175.602 567.231 175.602C568.714 175.602 569.509 176.812 569.509 178.58C569.509 180.381 568.697 181.46 567.231 181.46ZM576.985 183.176C578.889 183.176 580.235 182.239 580.622 180.818L579.014 180.528C578.707 181.352 577.968 181.773 577.002 181.773C575.548 181.773 574.571 180.83 574.525 179.148H580.73V178.545C580.73 175.392 578.843 174.159 576.866 174.159C574.434 174.159 572.832 176.011 572.832 178.693C572.832 181.403 574.411 183.176 576.985 183.176ZM574.531 177.875C574.599 176.636 575.497 175.562 576.877 175.562C578.196 175.562 579.059 176.54 579.065 177.875H574.531ZM584.073 177.818C584.073 176.426 584.926 175.631 586.107 175.631C587.261 175.631 587.96 176.386 587.96 177.653V183H589.659V177.449C589.659 175.29 588.471 174.159 586.687 174.159C585.375 174.159 584.517 174.767 584.113 175.693H584.005V174.273H582.375V183H584.073V177.818ZM595.771 174.273H593.981V172.182H592.282V174.273H591.004V175.636H592.282V180.79C592.277 182.375 593.487 183.142 594.828 183.114C595.368 183.108 595.731 183.006 595.93 182.932L595.623 181.528C595.51 181.551 595.299 181.602 595.027 181.602C594.475 181.602 593.981 181.42 593.981 180.438V175.636H595.771V174.273ZM490.128 206H491.855L493.628 199.699H493.759L495.532 206H497.265L499.827 197.273H498.071L496.372 203.653H496.287L494.583 197.273H492.827L491.111 203.682H491.026L489.316 197.273H487.56L490.128 206ZM501.199 206H502.898V197.273H501.199V206ZM502.057 195.926C502.642 195.926 503.131 195.472 503.131 194.915C503.131 194.358 502.642 193.898 502.057 193.898C501.466 193.898 500.983 194.358 500.983 194.915C500.983 195.472 501.466 195.926 502.057 195.926ZM509.017 197.273H507.228V195.182H505.529V197.273H504.25V198.636H505.529V203.79C505.523 205.375 506.733 206.142 508.074 206.114C508.614 206.108 508.978 206.006 509.177 205.932L508.87 204.528C508.756 204.551 508.546 204.602 508.273 204.602C507.722 204.602 507.228 204.42 507.228 203.438V198.636H509.017V197.273ZM512.543 200.818C512.543 199.426 513.424 198.631 514.634 198.631C515.804 198.631 516.503 199.375 516.503 200.653V206H518.202V200.449C518.202 198.273 517.009 197.159 515.214 197.159C513.856 197.159 513.037 197.75 512.628 198.693H512.52V194.364H510.844V206H512.543V200.818ZM526.763 206.193C528.207 206.193 529.019 205.46 529.343 204.807H529.411V206H531.07V200.205C531.07 197.665 529.07 197.159 527.684 197.159C526.104 197.159 524.65 197.795 524.082 199.386L525.678 199.75C525.928 199.131 526.565 198.534 527.707 198.534C528.803 198.534 529.366 199.108 529.366 200.097V200.136C529.366 200.756 528.729 200.744 527.161 200.926C525.508 201.119 523.815 201.551 523.815 203.534C523.815 205.25 525.104 206.193 526.763 206.193ZM527.133 204.83C526.172 204.83 525.479 204.398 525.479 203.557C525.479 202.648 526.286 202.324 527.269 202.193C527.82 202.119 529.127 201.972 529.371 201.727V202.852C529.371 203.886 528.547 204.83 527.133 204.83ZM533.093 209.273H534.792V204.642H534.894C535.201 205.199 535.826 206.17 537.417 206.17C539.53 206.17 541.065 204.477 541.065 201.653C541.065 198.824 539.508 197.159 537.4 197.159C535.78 197.159 535.195 198.148 534.894 198.688H534.752V197.273H533.093V209.273ZM534.758 201.636C534.758 199.812 535.553 198.602 537.036 198.602C538.576 198.602 539.349 199.903 539.349 201.636C539.349 203.386 538.553 204.722 537.036 204.722C535.576 204.722 534.758 203.472 534.758 201.636ZM542.728 209.273H544.427V204.642H544.529C544.836 205.199 545.461 206.17 547.052 206.17C549.165 206.17 550.7 204.477 550.7 201.653C550.7 198.824 549.143 197.159 547.035 197.159C545.415 197.159 544.83 198.148 544.529 198.688H544.387V197.273H542.728V209.273ZM544.393 201.636C544.393 199.812 545.188 198.602 546.671 198.602C548.211 198.602 548.984 199.903 548.984 201.636C548.984 203.386 548.188 204.722 546.671 204.722C545.211 204.722 544.393 203.472 544.393 201.636ZM558.897 206.193C560.34 206.193 561.153 205.46 561.477 204.807H561.545V206H563.204V200.205C563.204 197.665 561.204 197.159 559.818 197.159C558.238 197.159 556.783 197.795 556.215 199.386L557.812 199.75C558.062 199.131 558.698 198.534 559.84 198.534C560.937 198.534 561.499 199.108 561.499 200.097V200.136C561.499 200.756 560.863 200.744 559.295 200.926C557.641 201.119 555.948 201.551 555.948 203.534C555.948 205.25 557.238 206.193 558.897 206.193ZM559.266 204.83C558.306 204.83 557.613 204.398 557.613 203.557C557.613 202.648 558.42 202.324 559.403 202.193C559.954 202.119 561.261 201.972 561.505 201.727V202.852C561.505 203.886 560.681 204.83 559.266 204.83ZM568.886 209.455C571.107 209.455 572.823 208.438 572.823 206.193V197.273H571.159V198.688H571.034C570.732 198.148 570.13 197.159 568.505 197.159C566.397 197.159 564.846 198.824 564.846 201.602C564.846 204.386 566.431 205.869 568.494 205.869C570.096 205.869 570.715 204.966 571.022 204.409H571.13V206.125C571.13 207.494 570.193 208.085 568.903 208.085C567.488 208.085 566.937 207.375 566.636 206.875L565.176 207.477C565.636 208.545 566.801 209.455 568.886 209.455ZM568.869 204.46C567.352 204.46 566.562 203.295 566.562 201.58C566.562 199.903 567.335 198.602 568.869 198.602C570.352 198.602 571.147 199.812 571.147 201.58C571.147 203.381 570.335 204.46 568.869 204.46ZM578.623 206.176C580.527 206.176 581.873 205.239 582.259 203.818L580.652 203.528C580.345 204.352 579.606 204.773 578.64 204.773C577.186 204.773 576.208 203.83 576.163 202.148H582.367V201.545C582.367 198.392 580.481 197.159 578.504 197.159C576.072 197.159 574.47 199.011 574.47 201.693C574.47 204.403 576.049 206.176 578.623 206.176ZM576.169 200.875C576.237 199.636 577.134 198.562 578.515 198.562C579.833 198.562 580.697 199.54 580.703 200.875H576.169ZM585.711 200.818C585.711 199.426 586.563 198.631 587.745 198.631C588.899 198.631 589.598 199.386 589.598 200.653V206H591.296V200.449C591.296 198.29 590.109 197.159 588.325 197.159C587.012 197.159 586.154 197.767 585.751 198.693H585.643V197.273H584.012V206H585.711V200.818ZM597.409 197.273H595.619V195.182H593.92V197.273H592.642V198.636H593.92V203.79C593.914 205.375 595.125 206.142 596.466 206.114C597.005 206.108 597.369 206.006 597.568 205.932L597.261 204.528C597.147 204.551 596.937 204.602 596.664 204.602C596.113 204.602 595.619 204.42 595.619 203.438V198.636H597.409V197.273ZM513.625 229H515.324V223.67C515.324 222.528 516.205 221.705 517.41 221.705C517.762 221.705 518.16 221.767 518.296 221.807V220.182C518.125 220.159 517.79 220.142 517.574 220.142C516.552 220.142 515.677 220.722 515.358 221.659H515.268V220.273H513.625V229ZM522.975 229.176C524.878 229.176 526.225 228.239 526.611 226.818L525.003 226.528C524.697 227.352 523.958 227.773 522.992 227.773C521.537 227.773 520.56 226.83 520.515 225.148H526.719V224.545C526.719 221.392 524.833 220.159 522.856 220.159C520.424 220.159 518.822 222.011 518.822 224.693C518.822 227.403 520.401 229.176 522.975 229.176ZM520.52 223.875C520.589 222.636 521.486 221.562 522.867 221.562C524.185 221.562 525.049 222.54 525.055 223.875H520.52ZM532.04 229.176C534.103 229.176 535.438 227.938 535.626 226.239H533.972C533.756 227.182 533.023 227.739 532.052 227.739C530.614 227.739 529.688 226.54 529.688 224.636C529.688 222.767 530.631 221.591 532.052 221.591C533.131 221.591 533.79 222.273 533.972 223.091H535.626C535.444 221.33 534.006 220.159 532.023 220.159C529.563 220.159 527.972 222.011 527.972 224.676C527.972 227.307 529.506 229.176 532.04 229.176ZM540.964 229.176C542.867 229.176 544.214 228.239 544.6 226.818L542.992 226.528C542.685 227.352 541.947 227.773 540.981 227.773C539.526 227.773 538.549 226.83 538.503 225.148H544.708V224.545C544.708 221.392 542.822 220.159 540.844 220.159C538.413 220.159 536.81 222.011 536.81 224.693C536.81 227.403 538.39 229.176 540.964 229.176ZM538.509 223.875C538.577 222.636 539.475 221.562 540.856 221.562C542.174 221.562 543.038 222.54 543.043 223.875H538.509ZM546.353 229H548.052V220.273H546.353V229ZM547.211 218.926C547.796 218.926 548.285 218.472 548.285 217.915C548.285 217.358 547.796 216.898 547.211 216.898C546.62 216.898 546.137 217.358 546.137 217.915C546.137 218.472 546.62 218.926 547.211 218.926ZM557.563 220.273H555.739L553.535 226.989H553.444L551.234 220.273H549.41L552.58 229H554.398L557.563 220.273ZM562.369 229.176C564.272 229.176 565.619 228.239 566.005 226.818L564.397 226.528C564.09 227.352 563.352 227.773 562.386 227.773C560.931 227.773 559.954 226.83 559.908 225.148H566.113V224.545C566.113 221.392 564.227 220.159 562.249 220.159C559.818 220.159 558.215 222.011 558.215 224.693C558.215 227.403 559.795 229.176 562.369 229.176ZM559.914 223.875C559.982 222.636 560.88 221.562 562.261 221.562C563.579 221.562 564.443 222.54 564.448 223.875H559.914ZM567.758 229H569.457V223.67C569.457 222.528 570.338 221.705 571.542 221.705C571.894 221.705 572.292 221.767 572.428 221.807V220.182C572.258 220.159 571.923 220.142 571.707 220.142C570.684 220.142 569.809 220.722 569.491 221.659H569.4V220.273H567.758V229ZM503.35 252H505.049V243.273H503.35V252ZM504.208 241.926C504.793 241.926 505.282 241.472 505.282 240.915C505.282 240.358 504.793 239.898 504.208 239.898C503.617 239.898 503.134 240.358 503.134 240.915C503.134 241.472 503.617 241.926 504.208 241.926ZM508.793 246.818C508.793 245.426 509.645 244.631 510.827 244.631C511.981 244.631 512.679 245.386 512.679 246.653V252H514.378V246.449C514.378 244.29 513.191 243.159 511.407 243.159C510.094 243.159 509.236 243.767 508.833 244.693H508.725V243.273H507.094V252H508.793V246.818ZM520.491 243.273H518.701V241.182H517.002V243.273H515.724V244.636H517.002V249.79C516.996 251.375 518.207 252.142 519.547 252.114C520.087 252.108 520.451 252.006 520.65 251.932L520.343 250.528C520.229 250.551 520.019 250.602 519.746 250.602C519.195 250.602 518.701 250.42 518.701 249.438V244.636H520.491V243.273ZM525.797 252.176C527.701 252.176 529.047 251.239 529.434 249.818L527.826 249.528C527.519 250.352 526.78 250.773 525.815 250.773C524.36 250.773 523.383 249.83 523.337 248.148H529.542V247.545C529.542 244.392 527.655 243.159 525.678 243.159C523.246 243.159 521.644 245.011 521.644 247.693C521.644 250.403 523.224 252.176 525.797 252.176ZM523.343 246.875C523.411 245.636 524.309 244.562 525.69 244.562C527.008 244.562 527.871 245.54 527.877 246.875H523.343ZM534.846 255.455C537.067 255.455 538.783 254.438 538.783 252.193V243.273H537.119V244.688H536.994C536.692 244.148 536.09 243.159 534.465 243.159C532.357 243.159 530.806 244.824 530.806 247.602C530.806 250.386 532.391 251.869 534.454 251.869C536.056 251.869 536.675 250.966 536.982 250.409H537.09V252.125C537.09 253.494 536.153 254.085 534.863 254.085C533.448 254.085 532.897 253.375 532.596 252.875L531.136 253.477C531.596 254.545 532.761 255.455 534.846 255.455ZM534.829 250.46C533.312 250.46 532.522 249.295 532.522 247.58C532.522 245.903 533.295 244.602 534.829 244.602C536.312 244.602 537.107 245.812 537.107 247.58C537.107 249.381 536.295 250.46 534.829 250.46ZM540.822 252H542.521V246.67C542.521 245.528 543.401 244.705 544.606 244.705C544.958 244.705 545.356 244.767 545.492 244.807V243.182C545.322 243.159 544.987 243.142 544.771 243.142C543.748 243.142 542.873 243.722 542.555 244.659H542.464V243.273H540.822V252ZM549.184 252.193C550.627 252.193 551.44 251.46 551.764 250.807H551.832V252H553.491V246.205C553.491 243.665 551.491 243.159 550.104 243.159C548.525 243.159 547.07 243.795 546.502 245.386L548.099 245.75C548.349 245.131 548.985 244.534 550.127 244.534C551.224 244.534 551.786 245.108 551.786 246.097V246.136C551.786 246.756 551.15 246.744 549.582 246.926C547.928 247.119 546.235 247.551 546.235 249.534C546.235 251.25 547.525 252.193 549.184 252.193ZM549.553 250.83C548.593 250.83 547.9 250.398 547.9 249.557C547.9 248.648 548.707 248.324 549.69 248.193C550.241 248.119 551.548 247.972 551.792 247.727V248.852C551.792 249.886 550.968 250.83 549.553 250.83ZM559.587 243.273H557.798V241.182H556.099V243.273H554.82V244.636H556.099V249.79C556.093 251.375 557.303 252.142 558.644 252.114C559.184 252.108 559.548 252.006 559.747 251.932L559.44 250.528C559.326 250.551 559.116 250.602 558.843 250.602C558.292 250.602 557.798 250.42 557.798 249.438V244.636H559.587V243.273ZM561.227 252H562.926V243.273H561.227V252ZM562.085 241.926C562.67 241.926 563.159 241.472 563.159 240.915C563.159 240.358 562.67 239.898 562.085 239.898C561.494 239.898 561.011 240.358 561.011 240.915C561.011 241.472 561.494 241.926 562.085 241.926ZM568.647 252.176C571.107 252.176 572.715 250.375 572.715 247.676C572.715 244.96 571.107 243.159 568.647 243.159C566.187 243.159 564.579 244.96 564.579 247.676C564.579 250.375 566.187 252.176 568.647 252.176ZM568.653 250.75C567.045 250.75 566.295 249.347 566.295 247.67C566.295 246 567.045 244.58 568.653 244.58C570.25 244.58 571 246 571 247.67C571 249.347 570.25 250.75 568.653 250.75ZM576.071 246.818C576.071 245.426 576.923 244.631 578.105 244.631C579.258 244.631 579.957 245.386 579.957 246.653V252H581.656V246.449C581.656 244.29 580.468 243.159 578.684 243.159C577.372 243.159 576.514 243.767 576.11 244.693H576.002V243.273H574.372V252H576.071V246.818Z" fill="black"/>
<path d="M857.46 203H865.367V201.3H859.436V189.909H857.46V203ZM871.333 203.198C874.101 203.198 875.91 201.172 875.91 198.136C875.91 195.08 874.101 193.054 871.333 193.054C868.565 193.054 866.756 195.08 866.756 198.136C866.756 201.172 868.565 203.198 871.333 203.198ZM871.339 201.594C869.53 201.594 868.686 200.015 868.686 198.129C868.686 196.25 869.53 194.652 871.339 194.652C873.135 194.652 873.979 196.25 873.979 198.129C873.979 200.015 873.135 201.594 871.339 201.594ZM881.889 206.886C884.389 206.886 886.319 205.742 886.319 203.217V193.182H884.446V194.773H884.306C883.967 194.166 883.289 193.054 881.461 193.054C879.09 193.054 877.345 194.927 877.345 198.053C877.345 201.185 879.128 202.853 881.448 202.853C883.251 202.853 883.948 201.837 884.293 201.21H884.414V203.141C884.414 204.681 883.359 205.346 881.909 205.346C880.317 205.346 879.697 204.547 879.358 203.984L877.715 204.662C878.233 205.864 879.543 206.886 881.889 206.886ZM881.87 201.268C880.163 201.268 879.275 199.957 879.275 198.027C879.275 196.141 880.144 194.678 881.87 194.678C883.538 194.678 884.433 196.039 884.433 198.027C884.433 200.053 883.519 201.268 881.87 201.268ZM895.969 195.579C895.573 194.051 894.378 193.054 892.256 193.054C890.038 193.054 888.465 194.224 888.465 195.962C888.465 197.356 889.309 198.283 891.15 198.692L892.812 199.056C893.758 199.267 894.199 199.689 894.199 200.303C894.199 201.063 893.387 201.658 892.134 201.658C890.99 201.658 890.255 201.165 890.025 200.2L888.178 200.482C888.497 202.22 889.942 203.198 892.147 203.198C894.518 203.198 896.161 201.939 896.161 200.162C896.161 198.775 895.279 197.918 893.477 197.503L891.917 197.145C890.837 196.889 890.37 196.525 890.376 195.86C890.37 195.106 891.188 194.569 892.275 194.569C893.464 194.569 894.014 195.227 894.237 195.886L895.969 195.579Z" fill="black"/>
<circle cx="876.5" cy="106.5" r="66.5" fill="#FB755A"/>
<path d="M864.934 136.12L864.13 130.777L858.64 131.511L859.516 137L864.934 136.12Z" fill="white"/>
<path d="M907.609 120.897L906.729 115.479L882.869 119.141L883.674 124.555L907.609 120.897Z" fill="white"/>
<path d="M875.184 125.875L880.598 125.07L879.793 119.652L874.304 120.532L875.184 125.875Z" fill="white"/>
<path d="M873.499 134.804L872.619 129.386L867.205 130.266L868.01 135.684L873.499 134.804Z" fill="white"/>
<path d="M857.396 123.092L858.201 128.51L863.619 127.706L862.81 122.217L857.396 123.092Z" fill="white"/>
<path d="M884.114 127.631L884.989 133.12L908.924 129.386L908.048 124.044L884.114 127.631Z" fill="white"/>
<path d="M876.5 134.364L881.918 133.56L881.038 128.071L875.695 128.951L876.5 134.364Z" fill="white"/>
<path d="M865.886 121.777L866.766 127.266L872.108 126.386L871.304 120.972L865.886 121.777Z" fill="white"/>
<path d="M859.227 119.728L852.565 76.2491L850.222 76.6891L856.956 120.017L859.227 119.728Z" fill="white"/>
<path d="M862.374 119.141L855.201 72.5869L852.858 73.0269L860.103 119.581L862.374 119.141Z" fill="white"/>
<path d="M867.788 118.408L860.179 69L857.836 69.3687L865.375 118.701L867.788 118.408Z" fill="white"/>
<path d="M870.864 117.896L863.912 72.8801L861.641 73.2489L868.593 118.261L870.864 117.896Z" fill="white"/>
<path d="M876.206 117.092L870.059 77.0537L867.788 77.4183L873.864 117.456L876.206 117.092Z" fill="white"/>
<path d="M879.354 116.581L872.913 75.0757L870.646 75.4444L877.087 116.87L879.354 116.581Z" fill="white"/>
<path d="M848.968 380.609H853.046V392H855.015V380.609H859.1V378.909H848.968V380.609ZM863.723 392.198C865.864 392.198 867.379 391.143 867.814 389.545L866.005 389.219C865.66 390.146 864.829 390.619 863.742 390.619C862.106 390.619 861.006 389.558 860.955 387.666H867.935V386.989C867.935 383.441 865.813 382.054 863.589 382.054C860.853 382.054 859.05 384.138 859.05 387.155C859.05 390.204 860.827 392.198 863.723 392.198ZM860.961 386.234C861.038 384.841 862.048 383.633 863.601 383.633C865.084 383.633 866.056 384.732 866.062 386.234H860.961ZM869.786 392H871.697V385.947C871.697 384.624 872.624 383.703 873.71 383.703C874.772 383.703 875.507 384.406 875.507 385.474V392H877.411V385.742C877.411 384.56 878.134 383.703 879.38 383.703C880.39 383.703 881.221 384.266 881.221 385.595V392H883.132V385.416C883.132 383.173 881.88 382.054 880.103 382.054C878.69 382.054 877.629 382.732 877.156 383.78H877.054C876.625 382.706 875.724 382.054 874.414 382.054C873.116 382.054 872.151 382.7 871.742 383.78H871.62V382.182H869.786V392ZM885.424 395.682H887.335V390.472H887.45C887.795 391.099 888.499 392.192 890.288 392.192C892.666 392.192 894.392 390.287 894.392 387.11C894.392 383.927 892.641 382.054 890.269 382.054C888.447 382.054 887.789 383.166 887.45 383.773H887.29V382.182H885.424V395.682ZM887.297 387.091C887.297 385.039 888.192 383.678 889.86 383.678C891.592 383.678 892.462 385.141 892.462 387.091C892.462 389.06 891.567 390.562 889.86 390.562C888.217 390.562 887.297 389.156 887.297 387.091ZM900.399 392.198C903.167 392.198 904.976 390.172 904.976 387.136C904.976 384.08 903.167 382.054 900.399 382.054C897.631 382.054 895.822 384.08 895.822 387.136C895.822 390.172 897.631 392.198 900.399 392.198ZM900.405 390.594C898.596 390.594 897.753 389.015 897.753 387.129C897.753 385.25 898.596 383.652 900.405 383.652C902.202 383.652 903.045 385.25 903.045 387.129C903.045 389.015 902.202 390.594 900.405 390.594Z" fill="black"/>
<circle cx="876.5" cy="295.5" r="66.5" fill="#FB755A"/>
<path d="M836.138 282.92H834.595C833.712 282.92 833 283.635 833 284.522C833 285.409 833.712 286.124 834.595 286.124H836.138C837.021 286.124 837.733 285.409 837.733 284.522C837.733 283.64 837.021 282.92 836.138 282.92V282.92ZM865.62 306.254H864.078C863.195 306.254 862.483 306.969 862.483 307.855C862.483 308.742 863.195 309.457 864.078 309.457H865.62C866.503 309.457 867.215 308.742 867.215 307.855C867.215 306.969 866.503 306.254 865.62 306.254ZM864.329 290.971C864.329 290.085 863.617 289.37 862.734 289.37H857.404C856.521 289.37 855.809 290.09 855.809 290.971C855.809 291.853 856.521 292.568 857.404 292.573H862.734C863.617 292.573 864.329 291.858 864.329 290.971ZM914.902 280.937L913.279 271.79C912.823 268.358 909.828 265.841 906.382 266.008H843.927C841.597 265.912 839.631 267.738 839.536 270.079C839.522 270.455 839.555 270.837 839.641 271.204L841.35 280.937C841.35 281.014 841.35 281.085 841.402 281.161C841.606 282.348 841.003 282.825 840.467 283.001C839.636 283.302 839.209 284.217 839.508 285.051C839.736 285.685 840.329 286.105 840.998 286.109H910.63C912.961 286.19 914.916 284.355 914.997 282.01C915.011 281.648 914.973 281.29 914.897 280.937H914.902ZM893.655 317.627C892.981 314.081 890.964 312.77 888.685 312.77H872.19C871.302 312.779 870.59 313.504 870.595 314.391C870.595 315.201 871.203 315.887 872.01 315.973C872.536 316.068 873.101 316.75 873.457 318.461L875.152 327.919C875.793 330.855 878.366 332.962 881.361 333L891.206 332.957C893.537 333.043 895.497 331.217 895.587 328.877C895.601 328.519 895.568 328.166 895.492 327.819L893.66 317.632L893.655 317.627ZM871.843 309.567H889.744C889.877 309.562 890.01 309.538 890.143 309.5C891.799 309.171 891.88 307.817 891.662 306.468L889.383 293.884C888.756 290.619 886.867 289.332 884.385 289.332H867.97C867.087 289.341 866.385 290.066 866.394 290.952C866.404 291.748 866.997 292.421 867.78 292.521C868.326 292.621 868.924 293.35 869.275 295.223L871.003 304.838V304.871C871.184 305.567 870.766 306.282 870.073 306.463C870.059 306.463 870.044 306.473 870.025 306.473C869.195 306.773 868.767 307.688 869.067 308.523C869.294 309.157 869.888 309.576 870.557 309.581H871.843V309.567Z" fill="white"/>
<path d="M1062.53 295.045H1064.56C1064.12 292.494 1061.94 290.73 1059.11 290.73C1055.72 290.73 1053.25 293.281 1053.25 297.461C1053.25 301.603 1055.65 304.179 1059.2 304.179C1062.38 304.179 1064.65 302.095 1064.65 298.79V297.301H1059.5V298.931H1062.74C1062.69 301.04 1061.3 302.376 1059.2 302.376C1056.89 302.376 1055.21 300.631 1055.21 297.448C1055.21 294.278 1056.91 292.533 1059.13 292.533C1060.86 292.533 1062.04 293.491 1062.53 295.045ZM1066.73 304H1068.64V298.004C1068.64 296.719 1069.63 295.793 1070.99 295.793C1071.39 295.793 1071.83 295.863 1071.99 295.908V294.08C1071.79 294.054 1071.42 294.035 1071.17 294.035C1070.02 294.035 1069.04 294.687 1068.68 295.741H1068.58V294.182H1066.73V304ZM1076.14 304.217C1077.76 304.217 1078.68 303.393 1079.04 302.658H1079.12V304H1080.98V297.48C1080.98 294.623 1078.73 294.054 1077.18 294.054C1075.4 294.054 1073.76 294.77 1073.12 296.56L1074.92 296.969C1075.2 296.272 1075.92 295.601 1077.2 295.601C1078.43 295.601 1079.07 296.246 1079.07 297.359V297.403C1079.07 298.1 1078.35 298.087 1076.59 298.292C1074.73 298.509 1072.82 298.995 1072.82 301.226C1072.82 303.156 1074.27 304.217 1076.14 304.217ZM1076.56 302.683C1075.47 302.683 1074.69 302.197 1074.69 301.251C1074.69 300.229 1075.6 299.864 1076.71 299.717C1077.33 299.634 1078.8 299.468 1079.07 299.193V300.459C1079.07 301.622 1078.15 302.683 1076.56 302.683ZM1087.93 294.182H1085.82V293.3C1085.82 292.43 1086.18 291.957 1087.11 291.957C1087.5 291.957 1087.79 292.047 1087.96 292.104L1088.41 290.558C1088.14 290.455 1087.59 290.295 1086.81 290.295C1085.26 290.295 1083.9 291.203 1083.9 293.044V294.182H1082.38V295.716H1083.9V304H1085.82V295.716H1087.93V294.182ZM1092.19 304.217C1093.82 304.217 1094.73 303.393 1095.1 302.658H1095.17V304H1097.04V297.48C1097.04 294.623 1094.79 294.054 1093.23 294.054C1091.45 294.054 1089.82 294.77 1089.18 296.56L1090.97 296.969C1091.25 296.272 1091.97 295.601 1093.25 295.601C1094.49 295.601 1095.12 296.246 1095.12 297.359V297.403C1095.12 298.1 1094.4 298.087 1092.64 298.292C1090.78 298.509 1088.88 298.995 1088.88 301.226C1088.88 303.156 1090.33 304.217 1092.19 304.217ZM1092.61 302.683C1091.53 302.683 1090.75 302.197 1090.75 301.251C1090.75 300.229 1091.66 299.864 1092.76 299.717C1093.38 299.634 1094.85 299.468 1095.13 299.193V300.459C1095.13 301.622 1094.2 302.683 1092.61 302.683ZM1101.23 298.17C1101.23 296.604 1102.18 295.71 1103.51 295.71C1104.81 295.71 1105.6 296.56 1105.6 297.985V304H1107.51V297.755C1107.51 295.326 1106.17 294.054 1104.17 294.054C1102.69 294.054 1101.72 294.738 1101.27 295.78H1101.15V294.182H1099.31V304H1101.23V298.17ZM1112.66 304.217C1114.28 304.217 1115.2 303.393 1115.56 302.658H1115.64V304H1117.5V297.48C1117.5 294.623 1115.25 294.054 1113.69 294.054C1111.92 294.054 1110.28 294.77 1109.64 296.56L1111.44 296.969C1111.72 296.272 1112.44 295.601 1113.72 295.601C1114.95 295.601 1115.59 296.246 1115.59 297.359V297.403C1115.59 298.1 1114.87 298.087 1113.11 298.292C1111.25 298.509 1109.34 298.995 1109.34 301.226C1109.34 303.156 1110.79 304.217 1112.66 304.217ZM1113.07 302.683C1111.99 302.683 1111.21 302.197 1111.21 301.251C1111.21 300.229 1112.12 299.864 1113.23 299.717C1113.85 299.634 1115.32 299.468 1115.59 299.193V300.459C1115.59 301.622 1114.67 302.683 1113.07 302.683Z" fill="black"/>
<circle cx="1085.5" cy="207.5" r="66.5" fill="#FB5A67"/>
<path d="M1123.66 202.663C1123.51 201.323 1123.36 199.686 1122.77 197.9C1122.33 196.114 1121.59 194.179 1120.56 192.096C1119.53 190.012 1118.2 187.929 1116.58 185.845C1115.99 185.101 1115.25 184.208 1114.36 183.464C1115.54 178.701 1112.89 174.682 1112.89 174.682C1108.46 174.385 1105.51 176.022 1104.48 176.915C1104.33 176.915 1104.18 176.766 1103.89 176.617C1103.15 176.32 1102.41 176.022 1101.53 175.724C1100.64 175.427 1099.9 175.278 1099.02 174.98C1098.13 174.831 1097.25 174.682 1096.51 174.534C1096.36 174.534 1096.21 174.534 1096.07 174.534C1094.15 168.283 1088.54 165.604 1088.54 165.604C1082.34 169.622 1081.16 175.129 1081.16 175.129C1081.16 175.129 1081.16 175.278 1081.16 175.427C1080.87 175.575 1080.43 175.575 1080.13 175.724C1079.69 175.873 1079.25 176.022 1078.66 176.171C1078.21 176.32 1077.77 176.468 1077.18 176.766C1076.29 177.213 1075.26 177.659 1074.38 178.106C1073.49 178.552 1072.61 179.147 1071.72 179.743C1071.57 179.743 1071.57 179.594 1071.57 179.594C1062.87 176.32 1055.19 180.338 1055.19 180.338C1054.46 189.566 1058.59 195.519 1059.47 196.561C1059.33 197.156 1059.03 197.751 1058.88 198.347C1058.29 200.43 1057.7 202.663 1057.41 204.895C1057.41 205.193 1057.26 205.491 1057.26 205.788C1049.29 209.807 1046.93 217.993 1046.93 217.993C1053.57 225.732 1061.39 226.179 1061.39 226.179C1062.42 227.965 1063.46 229.602 1064.79 231.239C1065.38 231.834 1065.97 232.578 1066.41 233.174C1064.05 240.169 1066.7 245.973 1066.7 245.973C1074.08 246.271 1078.95 242.699 1079.98 241.806C1080.72 242.104 1081.46 242.253 1082.2 242.55C1084.41 243.146 1086.77 243.443 1089.13 243.592C1089.72 243.592 1090.31 243.592 1090.9 243.592H1091.2H1091.35H1091.64H1091.94C1095.48 248.652 1101.53 249.397 1101.53 249.397C1105.95 244.783 1106.1 240.169 1106.1 239.127C1106.1 238.978 1106.1 238.978 1106.1 238.978V238.829C1106.99 238.234 1107.87 237.49 1108.76 236.746C1110.53 235.109 1112 233.323 1113.33 231.388C1113.48 231.239 1113.63 231.09 1113.63 230.792C1118.64 231.09 1122.04 227.667 1122.04 227.667C1121.15 222.458 1118.2 219.928 1117.61 219.481C1117.61 219.481 1117.61 219.481 1117.46 219.481C1117.46 219.183 1117.46 218.886 1117.46 218.588C1117.46 217.993 1117.46 217.397 1117.46 216.951V216.207V216.058V215.909C1117.46 215.76 1117.46 215.76 1117.46 215.76V215.463V215.016C1117.46 214.867 1117.46 214.718 1117.46 214.57C1117.46 214.421 1117.46 214.272 1117.46 214.123V213.677V213.23C1117.31 212.635 1117.31 212.039 1117.17 211.593C1116.58 209.36 1115.84 207.277 1114.66 205.342C1113.48 203.407 1112.15 201.77 1110.53 200.282C1108.9 198.793 1107.13 197.751 1105.22 196.858C1103.3 195.965 1101.38 195.519 1099.31 195.221C1098.28 195.072 1097.39 195.072 1096.36 195.072H1096.07H1095.92H1095.77H1095.62H1095.33C1095.18 195.072 1095.03 195.072 1094.89 195.072C1094.44 195.072 1093.85 195.221 1093.41 195.221C1091.49 195.519 1089.57 196.263 1087.95 197.305C1086.33 198.347 1084.85 199.537 1083.67 200.877C1082.49 202.216 1081.61 203.854 1081.02 205.491C1080.43 207.128 1080.13 208.765 1079.98 210.402C1079.98 210.849 1079.98 211.146 1079.98 211.593C1079.98 211.742 1079.98 211.742 1079.98 211.891V212.188C1079.98 212.337 1079.98 212.635 1079.98 212.784C1080.13 213.528 1080.28 214.421 1080.43 215.165C1080.87 216.653 1081.61 217.993 1082.34 219.183C1083.23 220.374 1084.26 221.267 1085.3 222.011C1086.33 222.755 1087.51 223.351 1088.69 223.648C1089.87 223.946 1090.9 224.095 1092.08 224.095C1092.23 224.095 1092.38 224.095 1092.53 224.095H1092.67H1092.82C1092.97 224.095 1093.12 224.095 1093.12 224.095C1093.12 224.095 1093.12 224.095 1093.26 224.095H1093.41H1093.56C1093.71 224.095 1093.85 224.095 1094 224.095C1094.15 224.095 1094.3 224.095 1094.44 223.946C1094.74 223.946 1094.89 223.797 1095.18 223.797C1095.62 223.648 1096.07 223.5 1096.51 223.202C1096.95 223.053 1097.25 222.755 1097.69 222.458C1097.84 222.458 1097.84 222.309 1097.99 222.16C1098.43 221.862 1098.43 221.267 1098.13 220.969C1097.84 220.672 1097.39 220.523 1097.1 220.821C1096.95 220.821 1096.95 220.969 1096.8 220.969C1096.51 221.118 1096.21 221.267 1095.77 221.416C1095.48 221.565 1095.03 221.565 1094.74 221.714C1094.59 221.714 1094.3 221.714 1094.15 221.714C1094 221.714 1094 221.714 1093.85 221.714C1093.71 221.714 1093.71 221.714 1093.56 221.714C1093.41 221.714 1093.41 221.714 1093.26 221.714C1093.12 221.714 1092.97 221.714 1092.97 221.714H1092.82H1092.67C1092.53 221.714 1092.53 221.714 1092.38 221.714C1091.49 221.565 1090.75 221.416 1089.87 220.969C1088.98 220.672 1088.25 220.076 1087.51 219.481C1086.77 218.886 1086.18 217.993 1085.74 217.249C1085.3 216.504 1084.85 215.463 1084.71 214.421C1084.56 213.974 1084.56 213.379 1084.56 212.932C1084.56 212.784 1084.56 212.635 1084.56 212.486V212.337V212.188C1084.56 211.891 1084.56 211.593 1084.71 211.295C1085.15 209.063 1086.18 206.979 1087.95 205.193C1088.39 204.747 1088.84 204.449 1089.28 204.002C1089.72 203.705 1090.31 203.407 1090.75 203.109C1091.35 202.812 1091.94 202.663 1092.38 202.514C1092.97 202.365 1093.56 202.216 1094.15 202.216C1094.44 202.216 1094.74 202.216 1095.03 202.216C1095.18 202.216 1095.18 202.216 1095.18 202.216H1095.48H1095.62H1095.92C1096.51 202.216 1097.25 202.365 1097.84 202.514C1099.17 202.812 1100.35 203.258 1101.53 204.002C1103.89 205.342 1105.81 207.426 1107.13 209.807C1107.72 210.998 1108.17 212.337 1108.46 213.677C1108.46 213.974 1108.61 214.421 1108.61 214.718V215.016V215.314C1108.61 215.463 1108.61 215.463 1108.61 215.611C1108.61 215.76 1108.61 215.76 1108.61 215.909V216.207V216.504C1108.61 216.653 1108.61 216.951 1108.61 217.1C1108.61 217.546 1108.61 217.844 1108.46 218.29C1108.46 218.588 1108.31 219.035 1108.31 219.332C1108.31 219.63 1108.17 220.076 1108.02 220.374C1107.87 221.118 1107.58 221.862 1107.28 222.458C1106.69 223.797 1105.95 225.137 1105.07 226.476C1103.3 228.858 1100.94 230.941 1098.13 232.132C1096.8 232.727 1095.33 233.174 1093.85 233.471C1093.12 233.62 1092.38 233.62 1091.64 233.769H1091.49H1091.35H1091.05H1090.75H1090.61C1090.75 233.769 1090.61 233.769 1090.61 233.769C1090.16 233.769 1089.87 233.769 1089.43 233.769C1087.8 233.62 1086.18 233.323 1084.71 232.876C1083.23 232.43 1081.61 231.834 1080.28 231.09C1077.47 229.602 1074.97 227.518 1072.9 224.988C1071.87 223.797 1070.98 222.458 1070.39 220.969C1069.65 219.481 1069.06 217.993 1068.62 216.504C1068.18 215.016 1067.88 213.379 1067.88 211.891V211.593V211.444V211.146V210.253V210.105V209.807V209.658C1067.88 209.509 1067.88 209.212 1067.88 209.063C1067.88 208.319 1068.03 207.426 1068.03 206.681C1068.18 205.937 1068.33 205.044 1068.47 204.3C1068.62 203.556 1068.77 202.663 1069.06 201.919C1069.51 200.43 1070.1 198.942 1070.69 197.454C1072.02 194.626 1073.64 192.096 1075.7 190.161C1076.15 189.714 1076.74 189.119 1077.33 188.673C1077.92 188.226 1078.51 187.78 1079.1 187.482C1079.69 187.036 1080.28 186.738 1080.87 186.44C1081.16 186.291 1081.46 186.143 1081.75 185.994C1081.9 185.994 1082.05 185.845 1082.2 185.845C1082.34 185.845 1082.49 185.696 1082.64 185.696C1083.23 185.398 1083.97 185.25 1084.56 184.952C1084.71 184.952 1084.85 184.803 1085 184.803C1085.15 184.803 1085.3 184.654 1085.44 184.654C1085.74 184.505 1086.18 184.505 1086.48 184.357C1086.62 184.357 1086.77 184.208 1087.07 184.208C1087.21 184.208 1087.36 184.208 1087.66 184.059C1087.8 184.059 1087.95 184.059 1088.25 183.91H1088.54H1088.84C1088.98 183.91 1089.13 183.91 1089.43 183.761C1089.57 183.761 1089.87 183.761 1090.02 183.612C1090.16 183.612 1090.46 183.612 1090.61 183.612C1090.75 183.612 1090.9 183.612 1091.05 183.612H1091.35H1091.49H1091.64C1091.79 183.612 1092.08 183.612 1092.23 183.612H1092.53C1092.53 183.612 1092.67 183.612 1092.53 183.612H1092.67C1092.82 183.612 1092.97 183.612 1093.12 183.612C1093.85 183.612 1094.44 183.612 1095.18 183.612C1096.51 183.612 1097.84 183.761 1099.17 184.059C1101.67 184.505 1104.03 185.398 1106.25 186.44C1108.46 187.482 1110.38 188.821 1112 190.31C1112.15 190.459 1112.15 190.459 1112.3 190.607C1112.45 190.756 1112.45 190.756 1112.59 190.905C1112.74 191.054 1113.04 191.203 1113.18 191.5C1113.33 191.798 1113.63 191.798 1113.77 192.096C1113.92 192.393 1114.22 192.542 1114.36 192.691C1115.1 193.435 1115.69 194.179 1116.28 195.072C1117.46 196.561 1118.5 198.198 1119.23 199.686C1119.23 199.835 1119.38 199.835 1119.38 199.984C1119.38 200.133 1119.53 200.133 1119.53 200.282C1119.68 200.43 1119.68 200.579 1119.82 200.877C1119.97 201.026 1119.97 201.175 1120.12 201.472C1120.27 201.621 1120.27 201.77 1120.41 202.068C1120.71 202.812 1121 203.407 1121.15 204.002C1121.45 205.044 1121.74 205.937 1121.89 206.681C1122.04 206.979 1122.33 207.277 1122.63 207.128C1122.92 207.128 1123.22 206.83 1123.22 206.533C1123.81 204.747 1123.81 203.705 1123.66 202.663Z" fill="white"/>
<path d="M810.949 106.314C811.123 105.79 810.839 105.224 810.314 105.051L801.771 102.222C801.246 102.048 800.681 102.332 800.507 102.857C800.333 103.381 800.618 103.947 801.142 104.12L808.736 106.635L806.222 114.229C806.048 114.754 806.332 115.319 806.857 115.493C807.381 115.667 807.947 115.382 808.12 114.858L810.949 106.314ZM609.449 207.894L810.449 106.894L809.551 105.106L608.551 206.106L609.449 207.894Z" fill="#A0A0B1"/>
<path d="M1019 218.974C1018.99 218.422 1018.53 217.986 1017.97 218L1008.98 218.231C1008.43 218.245 1007.99 218.704 1008 219.256C1008.02 219.808 1008.48 220.245 1009.03 220.23L1017.03 220.025L1017.23 228.023C1017.25 228.575 1017.7 229.011 1018.26 228.997C1018.81 228.983 1019.24 228.524 1019.23 227.971L1019 218.974ZM942.725 299.689L1018.72 219.689L1017.28 218.311L941.275 298.311L942.725 299.689Z" fill="#A0A0B1"/>
<path d="M1019 186.026C1018.99 186.578 1018.53 187.014 1017.97 187L1008.98 186.769C1008.43 186.755 1007.99 186.296 1008 185.744C1008.02 185.192 1008.48 184.755 1009.03 184.77L1017.03 184.975L1017.23 176.977C1017.25 176.425 1017.7 175.989 1018.26 176.003C1018.81 176.017 1019.24 176.476 1019.23 177.029L1019 186.026ZM942.725 105.311L1018.72 185.311L1017.28 186.689L941.275 106.689L942.725 105.311Z" fill="#A0A0B1"/>
<path d="M810.349 299.937C810.866 299.745 811.13 299.169 810.937 298.651L807.799 290.216C807.607 289.698 807.031 289.435 806.513 289.628C805.996 289.82 805.732 290.396 805.925 290.913L808.714 298.411L801.216 301.201C800.698 301.393 800.435 301.969 800.628 302.487C800.82 303.004 801.396 303.268 801.913 303.075L810.349 299.937ZM608.584 207.909L809.584 299.909L810.416 298.091L609.416 206.091L608.584 207.909Z" fill="#A0A0B1"/>
<rect x="637.338" y="169.495" width="148" height="40" rx="20" transform="rotate(-26.1197 637.338 169.495)" fill="white"/>
<path d="M665.886 164.711L664.742 165.272L668.584 173.108L669.728 172.547L665.886 164.711ZM673.801 170.697C675.457 169.885 675.945 168.141 675.054 166.324C674.158 164.495 672.48 163.813 670.823 164.625C669.167 165.437 668.678 167.181 669.575 169.01C670.466 170.827 672.144 171.509 673.801 170.697ZM673.334 169.735C672.251 170.266 671.282 169.568 670.729 168.44C670.177 167.315 670.213 166.111 671.296 165.58C672.371 165.052 673.345 165.761 673.897 166.886C674.45 168.015 674.409 169.208 673.334 169.735ZM681.364 169.727C682.86 168.994 683.679 167.742 682.938 166.231L679.993 160.224L678.872 160.774L679.339 161.726L679.255 161.768C678.874 161.503 678.142 161.037 677.048 161.573C675.628 162.269 675.133 163.902 676.051 165.773C676.97 167.648 678.527 168.123 679.916 167.442C680.995 166.913 681.114 166.1 681.136 165.624L681.209 165.589L681.776 166.744C682.228 167.666 681.792 168.374 680.923 168.8C679.97 169.267 679.365 168.97 678.997 168.733L678.212 169.621C678.875 170.188 679.959 170.416 681.364 169.727ZM679.703 166.37C678.682 166.871 677.765 166.347 677.199 165.191C676.645 164.063 676.736 162.931 677.769 162.425C678.768 161.935 679.703 162.488 680.286 163.678C680.881 164.89 680.69 165.886 679.703 166.37ZM686.635 158.747C685.949 157.949 684.941 157.703 683.671 158.326C682.343 158.977 681.745 160.138 682.255 161.179C682.664 162.013 683.441 162.32 684.663 162.025L685.765 161.755C686.393 161.604 686.781 161.727 686.961 162.094C687.185 162.55 686.873 163.144 686.123 163.511C685.438 163.847 684.854 163.768 684.433 163.258L683.41 163.969C684.111 164.916 685.263 165.077 686.583 164.43C688.002 163.734 688.616 162.498 688.095 161.434C687.688 160.604 686.908 160.35 685.707 160.63L684.669 160.874C683.947 161.038 683.561 160.957 683.369 160.557C683.144 160.107 683.476 159.546 684.127 159.227C684.838 158.878 685.361 159.111 685.688 159.439L686.635 158.747ZM691.149 160.715L690.047 161.255L690.218 161.703C690.639 162.783 690.906 163.947 691.035 164.472L691.847 164.075C691.785 163.483 691.627 162.137 691.296 161.16L691.149 160.715ZM698.606 158.535C699.887 157.906 700.485 156.83 700.276 155.746L699.097 156.082C699.163 156.738 698.804 157.265 698.154 157.584C697.174 158.064 696.205 157.752 695.619 156.634L699.797 154.586L699.598 154.18C698.557 152.056 696.88 151.849 695.548 152.502C693.91 153.305 693.443 155.081 694.329 156.887C695.223 158.712 696.872 159.385 698.606 158.535ZM695.202 155.775C694.839 154.919 695.089 153.899 696.019 153.443C696.907 153.008 697.811 153.381 698.256 154.278L695.202 155.775ZM700.223 150.305L698.968 150.92L702.215 152.973L701.827 156.808L703.082 156.193L703.325 153.349L705.725 154.897L706.977 154.283L703.688 152.251L704.08 148.414L702.829 149.027L702.642 151.957L700.223 150.305ZM710.428 152.738C711.817 152.057 712.307 150.782 711.872 149.576L710.759 150.122C710.925 150.829 710.615 151.446 709.961 151.766C708.993 152.241 707.973 151.739 707.345 150.458C706.727 149.199 706.974 148.095 707.931 147.626C708.658 147.27 709.327 147.512 709.719 148.002L710.833 147.457C710.129 146.33 708.774 146.017 707.439 146.672C705.782 147.484 705.322 149.257 706.202 151.051C707.071 152.823 708.721 153.575 710.428 152.738ZM716.598 149.713C717.88 149.084 718.477 148.008 718.269 146.924L717.09 147.26C717.155 147.916 716.797 148.443 716.146 148.762C715.167 149.242 714.197 148.93 713.611 147.812L717.79 145.763L717.591 145.358C716.55 143.234 714.872 143.027 713.541 143.68C711.903 144.483 711.436 146.259 712.321 148.065C713.216 149.89 714.865 150.562 716.598 149.713ZM713.195 146.953C712.832 146.097 713.082 145.077 714.012 144.621C714.899 144.186 715.804 144.559 716.248 145.456L713.195 146.953ZM721.412 149.939L722.556 149.378L721.027 146.26L721.095 146.226C721.486 146.5 722.228 146.948 723.299 146.422C724.722 145.724 725.196 144.078 724.264 142.176C723.33 140.271 721.732 139.664 720.312 140.36C719.222 140.894 719.154 141.753 719.129 142.216L719.034 142.263L718.567 141.31L717.449 141.858L721.412 149.939ZM720.011 144.247C719.409 143.019 719.545 141.941 720.544 141.452C721.581 140.943 722.531 141.564 723.103 142.731C723.681 143.91 723.586 145.071 722.564 145.572C721.581 146.054 720.617 145.483 720.011 144.247ZM726.843 137.252L725.637 137.843L724.947 136.435L723.803 136.996L724.493 138.404L723.632 138.827L724.083 139.745L724.944 139.323L726.645 142.793C727.165 143.862 728.233 143.979 729.127 143.517C729.488 143.335 729.699 143.146 729.809 143.031L729.139 142.187C729.07 142.24 728.945 142.344 728.761 142.434C728.39 142.616 727.997 142.657 727.673 141.995L726.088 138.762L727.293 138.171L726.843 137.252ZM730.99 142.509L732.134 141.948L729.252 136.071L728.108 136.632L730.99 142.509ZM728.241 135.442C728.635 135.249 728.814 134.781 728.63 134.406C728.447 134.031 727.966 133.883 727.571 134.076C727.174 134.271 727 134.74 727.184 135.115C727.368 135.49 727.843 135.637 728.241 135.442ZM736.207 140.098C737.863 139.286 738.351 137.542 737.46 135.725C736.563 133.896 734.886 133.214 733.229 134.026C731.572 134.838 731.084 136.582 731.981 138.411C732.872 140.229 734.55 140.911 736.207 140.098ZM735.739 139.136C734.657 139.667 733.688 138.969 733.135 137.841C732.583 136.716 732.619 135.512 733.702 134.981C734.777 134.454 735.751 135.162 736.303 136.287C736.856 137.416 736.815 138.609 735.739 139.136ZM739.598 133.96C739.138 133.022 739.45 132.205 740.245 131.815C741.022 131.434 741.742 131.712 742.161 132.566L743.926 136.166L745.07 135.605L743.237 131.867C742.524 130.413 741.351 130.044 740.15 130.633C739.266 131.066 738.889 131.759 738.923 132.516L738.85 132.551L738.381 131.595L737.283 132.133L740.165 138.01L741.309 137.449L739.598 133.96ZM748.83 128.251C748.145 127.453 747.136 127.207 745.866 127.83C744.538 128.481 743.941 129.643 744.451 130.683C744.86 131.517 745.637 131.825 746.859 131.529L747.961 131.26C748.589 131.108 748.977 131.231 749.157 131.599C749.38 132.054 749.069 132.648 748.319 133.016C747.634 133.351 747.049 133.273 746.628 132.762L745.605 133.473C746.307 134.42 747.458 134.581 748.778 133.934C750.198 133.238 750.812 132.002 750.29 130.938C749.883 130.108 749.104 129.854 747.903 130.135L746.864 130.378C746.142 130.542 745.756 130.461 745.565 130.061C745.34 129.612 745.672 129.05 746.322 128.731C747.034 128.382 747.556 128.615 747.883 128.943L748.83 128.251ZM753.344 130.219L752.242 130.76L752.414 131.207C752.834 132.287 753.102 133.452 753.231 133.977L754.042 133.579C753.98 132.988 753.823 131.641 753.491 130.665L753.344 130.219ZM662.874 192.761C664.156 192.132 664.753 191.056 664.544 189.972L663.366 190.308C663.431 190.964 663.073 191.491 662.422 191.81C661.443 192.29 660.473 191.978 659.887 190.86L664.066 188.812L663.867 188.406C662.825 186.282 661.148 186.075 659.817 186.728C658.179 187.531 657.712 189.307 658.597 191.113C659.492 192.938 661.141 193.611 662.874 192.761ZM659.471 190.001C659.108 189.145 659.358 188.125 660.288 187.669C661.175 187.234 662.08 187.607 662.524 188.504L659.471 190.001ZM668.574 182.529L667.346 183.131L668.079 188.382L668.017 188.412L664.312 184.619L663.083 185.221L668.1 190.051L669.324 189.451L668.574 182.529ZM674.911 186.859C676.193 186.23 676.79 185.154 676.582 184.07L675.403 184.406C675.468 185.062 675.11 185.589 674.459 185.908C673.48 186.388 672.51 186.076 671.925 184.958L676.103 182.91L675.904 182.504C674.863 180.38 673.185 180.173 671.854 180.826C670.216 181.629 669.749 183.405 670.634 185.211C671.529 187.036 673.178 187.708 674.911 186.859ZM671.508 184.099C671.145 183.243 671.395 182.223 672.325 181.767C673.212 181.332 674.117 181.705 674.561 182.602L671.508 184.099ZM678.077 180.831C677.617 179.893 677.929 179.076 678.725 178.686C679.501 178.305 680.221 178.583 680.64 179.437L682.405 183.037L683.549 182.476L681.716 178.738C681.003 177.284 679.83 176.915 678.629 177.504C677.745 177.937 677.368 178.63 677.402 179.387L677.329 179.422L676.86 178.466L675.762 179.004L678.644 184.881L679.788 184.32L678.077 180.831ZM684.945 174.502L683.74 175.093L683.05 173.685L681.906 174.246L682.596 175.654L681.735 176.076L682.185 176.994L683.046 176.572L684.748 180.042C685.267 181.112 686.336 181.229 687.229 180.767C687.591 180.585 687.802 180.396 687.911 180.28L687.241 179.437C687.172 179.489 687.048 179.593 686.864 179.683C686.493 179.865 686.1 179.906 685.775 179.244L684.19 176.011L685.395 175.42L684.945 174.502ZM691.223 173.203C690.538 172.405 689.53 172.159 688.259 172.782C686.932 173.433 686.334 174.594 686.844 175.635C687.253 176.469 688.03 176.776 689.252 176.481L690.354 176.211C690.982 176.06 691.37 176.183 691.55 176.55C691.773 177.006 691.462 177.6 690.712 177.967C690.027 178.303 689.443 178.224 689.022 177.714L687.998 178.425C688.7 179.372 689.852 179.533 691.172 178.886C692.591 178.19 693.205 176.954 692.683 175.89C692.276 175.06 691.497 174.806 690.296 175.086L689.257 175.33C688.536 175.494 688.149 175.413 687.958 175.013C687.733 174.563 688.065 174.002 688.716 173.683C689.427 173.334 689.949 173.567 690.277 173.895L691.223 173.203ZM695.737 175.171L694.635 175.711L694.807 176.159C695.228 177.239 695.495 178.403 695.624 178.929L696.435 178.531C696.373 177.94 696.216 176.593 695.884 175.616L695.737 175.171ZM700.603 174.114L701.747 173.553L699.971 169.93C699.582 169.138 699.867 168.315 700.518 167.996C701.153 167.684 701.799 167.89 702.112 168.529L704.028 172.435L705.168 171.876L703.331 168.13C702.984 167.422 703.165 166.698 703.911 166.332C704.516 166.035 705.178 166.128 705.569 166.924L707.448 170.758L708.592 170.197L706.66 166.256C706.002 164.913 704.923 164.611 703.86 165.133C703.014 165.547 702.578 166.264 702.602 167.031L702.541 167.061C701.97 166.543 701.239 166.418 700.454 166.802C699.678 167.183 699.289 167.853 699.362 168.62L699.289 168.655L698.82 167.699L697.722 168.237L700.603 174.114ZM712.717 168.322C713.999 167.693 714.596 166.617 714.387 165.533L713.209 165.869C713.274 166.525 712.915 167.052 712.265 167.371C711.285 167.851 710.316 167.539 709.73 166.421L713.908 164.373L713.709 163.967C712.668 161.844 710.991 161.636 709.659 162.289C708.022 163.092 707.554 164.868 708.44 166.674C709.335 168.499 710.984 169.172 712.717 168.322ZM709.314 165.562C708.951 164.706 709.201 163.686 710.13 163.23C711.018 162.795 711.922 163.168 712.367 164.065L709.314 165.562ZM718.224 165.636C719.195 165.159 719.501 164.398 719.503 163.851L719.549 163.828L719.943 164.632L721.06 164.084L719.146 160.181C718.308 158.471 716.794 158.791 715.861 159.248C714.797 159.77 714.027 160.679 714.17 161.938L715.365 161.655C715.329 161.156 715.561 160.544 716.33 160.167C717.068 159.805 717.637 160.005 717.963 160.671L717.976 160.698C718.181 161.115 717.748 161.318 716.752 161.958C715.703 162.634 714.705 163.484 715.36 164.819C715.926 165.974 717.106 166.184 718.224 165.636ZM718.022 164.596C717.375 164.913 716.766 164.851 716.488 164.285C716.188 163.672 716.625 163.188 717.243 162.775C717.59 162.544 718.421 162.013 718.505 161.767L718.877 162.525C719.218 163.221 718.975 164.129 718.022 164.596ZM724.81 156.735C724.124 155.937 723.116 155.691 721.846 156.314C720.518 156.965 719.92 158.126 720.43 159.167C720.839 160.001 721.616 160.308 722.838 160.013L723.94 159.743C724.568 159.592 724.956 159.715 725.136 160.082C725.359 160.538 725.048 161.132 724.298 161.499C723.613 161.835 723.029 161.756 722.608 161.246L721.584 161.957C722.286 162.904 723.438 163.065 724.758 162.418C726.177 161.722 726.791 160.486 726.27 159.422C725.862 158.592 725.083 158.338 723.882 158.618L722.843 158.862C722.122 159.026 721.736 158.945 721.544 158.545C721.319 158.095 721.651 157.534 722.302 157.215C723.013 156.866 723.536 157.099 723.863 157.427L724.81 156.735ZM730.888 156.242C731.382 157.238 730.872 158.077 730.229 158.392C729.521 158.739 728.78 158.466 728.388 157.667L726.623 154.066L725.479 154.627L727.312 158.365C728.026 159.823 729.198 160.189 730.326 159.635C731.21 159.202 731.582 158.441 731.546 157.68L731.607 157.65L732.106 158.668L733.231 158.116L730.349 152.239L729.202 152.802L730.888 156.242ZM734.768 157.362L735.912 156.801L734.153 153.212C733.775 152.443 734.097 151.598 734.908 151.2C735.145 151.084 735.433 150.995 735.538 150.976L735.002 149.882C734.879 149.923 734.648 150.022 734.503 150.094C733.814 150.431 733.416 151.11 733.511 151.847L733.45 151.877L732.992 150.943L731.887 151.485L734.768 157.362ZM741.284 154.315C742.566 153.686 743.163 152.61 742.954 151.526L741.776 151.862C741.841 152.518 741.483 153.045 740.832 153.364C739.853 153.844 738.883 153.532 738.297 152.414L742.475 150.366L742.277 149.96C741.235 147.836 739.558 147.629 738.226 148.282C736.589 149.085 736.121 150.861 737.007 152.667C737.902 154.492 739.551 155.165 741.284 154.315ZM737.881 151.555C737.518 150.699 737.768 149.679 738.697 149.223C739.585 148.788 740.489 149.161 740.934 150.058L737.881 151.555ZM745.017 152.337L746.161 151.776L744.384 148.153C743.996 147.361 744.28 146.538 744.931 146.219C745.566 145.908 746.212 146.113 746.526 146.752L748.441 150.658L749.581 150.099L747.745 146.353C747.398 145.646 747.579 144.921 748.325 144.555C748.929 144.259 749.592 144.351 749.982 145.147L751.862 148.981L753.006 148.42L751.073 144.479C750.415 143.136 749.337 142.834 748.273 143.356C747.427 143.77 746.991 144.487 747.016 145.254L746.954 145.284C746.383 144.767 745.652 144.641 744.868 145.026C744.091 145.406 743.703 146.076 743.775 146.843L743.702 146.878L743.233 145.922L742.135 146.46L745.017 152.337ZM757.13 146.545C758.412 145.917 759.009 144.841 758.8 143.756L757.622 144.092C757.687 144.748 757.329 145.275 756.678 145.594C755.699 146.075 754.729 145.762 754.143 144.645L758.322 142.596L758.123 142.19C757.081 140.067 755.404 139.859 754.073 140.512C752.435 141.315 751.968 143.092 752.853 144.898C753.748 146.723 755.397 147.395 757.13 146.545ZM753.727 143.786C753.364 142.929 753.614 141.909 754.544 141.454C755.431 141.018 756.336 141.391 756.78 142.289L753.727 143.786ZM760.296 140.517C759.836 139.58 760.148 138.763 760.943 138.373C761.72 137.992 762.44 138.27 762.859 139.123L764.624 142.724L765.768 142.163L763.935 138.424C763.222 136.97 762.049 136.601 760.848 137.19C759.964 137.624 759.587 138.316 759.621 139.073L759.548 139.109L759.079 138.152L757.981 138.691L760.863 144.568L762.007 144.007L760.296 140.517ZM767.164 134.188L765.959 134.779L765.268 133.371L764.124 133.932L764.815 135.34L763.954 135.762L764.404 136.68L765.265 136.258L766.967 139.729C767.486 140.798 768.554 140.915 769.448 140.453C769.81 140.271 770.021 140.082 770.13 139.967L769.46 139.123C769.391 139.176 769.267 139.28 769.083 139.37C768.712 139.552 768.319 139.592 767.994 138.931L766.409 135.697L767.614 135.106L767.164 134.188ZM773.442 132.89C772.757 132.091 771.749 131.845 770.478 132.468C769.151 133.119 768.553 134.281 769.063 135.322C769.472 136.156 770.249 136.463 771.471 136.167L772.573 135.898C773.201 135.746 773.589 135.869 773.769 136.237C773.992 136.692 773.681 137.286 772.931 137.654C772.246 137.99 771.661 137.911 771.24 137.401L770.217 138.111C770.919 139.058 772.07 139.219 773.39 138.572C774.81 137.876 775.424 136.64 774.902 135.577C774.495 134.746 773.716 134.493 772.515 134.773L771.476 135.016C770.754 135.18 770.368 135.099 770.177 134.699C769.952 134.25 770.284 133.688 770.934 133.369C771.646 133.02 772.168 133.253 772.495 133.582L773.442 132.89Z" fill="black"/>
<rect x="637.338" y="169.495" width="148" height="40" rx="20" transform="rotate(-26.1197 637.338 169.495)" stroke="#A0A0B1" stroke-width="2"/>
<rect x="693.268" y="231.337" width="55" height="25" rx="12.5" transform="rotate(25.9299 693.268 231.337)" fill="white"/>
<path d="M700.7 246.575L699.493 245.988L700.179 244.578L699.033 244.021L698.347 245.431L697.485 245.012L697.038 245.932L697.9 246.351L696.21 249.827C695.686 250.894 696.251 251.808 697.165 252.229C697.531 252.402 697.81 252.452 697.968 252.468L698.221 251.421C698.137 251.399 697.979 251.364 697.795 251.275C697.423 251.094 697.149 250.809 697.472 250.146L699.046 246.908L700.253 247.495L700.7 246.575ZM699.106 253.078L700.252 253.635L702 250.04C702.374 249.27 703.238 249.003 704.051 249.398C704.288 249.514 704.536 249.686 704.615 249.758L705.148 248.662C705.041 248.591 704.82 248.469 704.674 248.398C703.985 248.063 703.204 248.167 702.682 248.695L702.621 248.665L703.076 247.73L701.968 247.191L699.106 253.078ZM704.845 256.029C705.818 256.503 706.607 256.275 707.039 255.94L707.085 255.963L706.694 256.767L707.813 257.312L709.714 253.403C710.547 251.689 709.363 250.692 708.428 250.238C707.363 249.72 706.173 249.672 705.268 250.559L706.226 251.328C706.598 250.992 707.222 250.798 707.993 251.173C708.732 251.532 708.924 252.104 708.599 252.771L708.586 252.798C708.383 253.215 707.958 252.999 706.84 252.607C705.662 252.195 704.378 251.931 703.728 253.269C703.165 254.426 703.726 255.485 704.845 256.029ZM705.541 255.231C704.893 254.916 704.567 254.397 704.843 253.83C705.141 253.217 705.792 253.263 706.498 253.497C706.894 253.628 707.824 253.957 708.068 253.872L707.699 254.631C707.36 255.329 706.495 255.695 705.541 255.231ZM711.761 259.378C713.152 260.054 714.459 259.657 715.143 258.572L714.027 258.03C713.572 258.596 712.895 258.731 712.24 258.412C711.271 257.941 711.039 256.828 711.663 255.545C712.276 254.284 713.298 253.8 714.256 254.266C714.984 254.62 715.205 255.296 715.06 255.907L716.175 256.449C716.63 255.202 716.044 253.941 714.707 253.29C713.047 252.484 711.367 253.211 710.493 255.009C709.63 256.783 710.052 258.547 711.761 259.378ZM717.942 262.383C719.226 263.007 720.441 262.817 721.168 261.985L720.178 261.263C719.701 261.718 719.065 261.759 718.413 261.442C717.432 260.965 717.083 260.008 717.603 258.859L721.788 260.894L721.986 260.488C723.02 258.361 722.152 256.911 720.818 256.262C719.178 255.465 717.49 256.188 716.61 257.997C715.722 259.825 716.206 261.539 717.942 262.383ZM718.025 258.003C718.477 257.19 719.435 256.76 720.366 257.212C721.255 257.645 721.517 258.587 721.083 259.49L718.025 258.003ZM728.371 261.806C728.579 260.774 728.153 259.828 726.88 259.209C725.55 258.563 724.267 258.806 723.76 259.848C723.354 260.684 723.589 261.485 724.574 262.267L725.464 262.97C725.97 263.372 726.111 263.754 725.932 264.122C725.71 264.578 725.05 264.698 724.299 264.332C723.613 263.999 723.316 263.49 723.46 262.844L722.27 262.474C721.955 263.609 722.536 264.617 723.858 265.26C725.28 265.951 726.632 265.675 727.15 264.61C727.554 263.778 727.275 263.007 726.315 262.233L725.485 261.563C724.911 261.095 724.738 260.741 724.936 260.344C725.152 259.89 725.799 259.807 726.45 260.123C727.163 260.47 727.301 261.025 727.243 261.485L728.371 261.806Z" fill="black"/>
<rect x="693.268" y="231.337" width="55" height="25" rx="12.5" transform="rotate(25.9299 693.268 231.337)" stroke="#A0A0B1" stroke-width="2"/>
</svg>
