<svg width="39" height="50" viewBox="0 0 39 50" fill="none" xmlns="http://www.w3.org/2000/svg">
<path d="M38.0796 6.09685L0 3.99013V2.10672L38.0796 0V6.09685Z" fill="url(#paint0_linear_29753_16075)"/>
<path d="M38.0796 14.8761L0 12.7694V10.886L38.0796 8.7793V14.8761Z" fill="url(#paint1_linear_29753_16075)"/>
<path d="M28.5274 23.65L0 21.5492V19.6687L28.5274 17.5679V23.65Z" fill="url(#paint2_linear_29753_16075)"/>
<path d="M28.5274 32.4323L0 30.3314V28.4509L28.5274 26.3501V32.4323Z" fill="url(#paint3_linear_29753_16075)"/>
<path d="M19.0398 41.2206L0 39.1139V37.2276L19.0398 35.1238V41.2206Z" fill="url(#paint4_linear_29753_16075)"/>
<path d="M19.0398 50.0002L0 47.8935V46.01L19.0398 43.9033V50.0002Z" fill="url(#paint5_linear_29753_16075)"/>
<defs>
<linearGradient id="paint0_linear_29753_16075" x1="-16.9625" y1="12.4405" x2="33.4519" y2="0.763941" gradientUnits="userSpaceOnUse">
<stop stop-color="#FFF000"/>
<stop offset="1" stop-color="#EF5A28"/>
</linearGradient>
<linearGradient id="paint1_linear_29753_16075" x1="-15.032" y1="20.7732" x2="35.3823" y2="9.09663" gradientUnits="userSpaceOnUse">
<stop stop-color="#FFF000"/>
<stop offset="1" stop-color="#EF5A28"/>
</linearGradient>
<linearGradient id="paint2_linear_29753_16075" x1="-13.6804" y1="26.412" x2="32.1003" y2="18.6286" gradientUnits="userSpaceOnUse">
<stop stop-color="#FFF000"/>
<stop offset="1" stop-color="#EF5A28"/>
</linearGradient>
<linearGradient id="paint3_linear_29753_16075" x1="-12.229" y1="34.9444" x2="33.5518" y2="27.161" gradientUnits="userSpaceOnUse">
<stop stop-color="#FFF000"/>
<stop offset="1" stop-color="#EF5A28"/>
</linearGradient>
<linearGradient id="paint4_linear_29753_16075" x1="-15.3112" y1="43.6182" x2="26.5764" y2="36.205" gradientUnits="userSpaceOnUse">
<stop stop-color="#FFF000"/>
<stop offset="1" stop-color="#EF5A28"/>
</linearGradient>
<linearGradient id="paint5_linear_29753_16075" x1="-13.8068" y1="52.1333" x2="28.0837" y2="44.7202" gradientUnits="userSpaceOnUse">
<stop stop-color="#FFF000"/>
<stop offset="1" stop-color="#EF5A28"/>
</linearGradient>
</defs>
</svg>
