<svg width="64" height="64" viewBox="0 0 64 64" fill="none" xmlns="http://www.w3.org/2000/svg">
<circle cx="16" cy="16" r="16" fill="#B0C6F2"/>
<path d="M18.1424 8.03056C18.6002 8.15449 18.8723 8.62493 18.7487 9.08476L14.9115 23.3633C14.8089 23.7471 14.4625 24 14.0825 24C14.0082 24 13.9321 23.9912 13.858 23.97C13.4002 23.8463 13.1281 23.3756 13.2517 22.9158L17.0889 8.63723C17.2126 8.1774 17.6881 7.90508 18.1424 8.03057L18.1424 8.03056ZM11.7721 11.7325C12.108 12.0685 12.108 12.6132 11.7721 12.9493L8.73846 15.9848L11.7756 19.0566C12.1097 19.3944 12.1063 19.9392 11.7687 20.2734C11.6006 20.4379 11.3833 20.5211 11.1641 20.5211C10.9431 20.5211 10.7223 20.4361 10.5525 20.2663L6.91503 16.5875C6.73818 16.4087 6.65608 16.1719 6.66786 15.9391C6.67773 15.7329 6.76139 15.5299 6.91867 15.3725L10.5562 11.7326C10.8918 11.3982 11.4363 11.3982 11.7721 11.7326L11.7721 11.7325ZM21.4016 11.7272L25.0781 15.3671C25.2187 15.5064 25.301 15.6822 25.3252 15.8644C25.3609 16.1221 25.2797 16.3928 25.0815 16.591L21.4051 20.2699C21.2372 20.4361 21.0164 20.521 20.7971 20.521C20.578 20.521 20.357 20.4361 20.1891 20.2699C19.8532 19.9338 19.8532 19.389 20.1891 19.0529L23.2559 15.9839L20.1926 12.951C19.855 12.6168 19.8532 12.072 20.1856 11.7342C20.5179 11.3964 21.0623 11.3928 21.4016 11.7271L21.4016 11.7272Z" fill="#4776D1"/>
</svg>
