<svg width="32" height="32" viewBox="0 0 32 32" fill="none" xmlns="http://www.w3.org/2000/svg">
<circle cx="16" cy="16" r="16" fill="#FDBEC4"/>
<path d="M23.2382 10.0438C19.6068 9.49186 17.5781 7.91495 16.6513 6.94254C16.3007 6.57465 15.7247 6.57465 15.349 6.94254C14.4224 7.91495 12.3938 9.46565 8.76216 10.0438C8.26122 10.1226 7.93563 10.5956 8.01076 11.095C8.51169 13.9597 10.4401 22.5804 15.5743 25.2347C15.8497 25.3661 16.1503 25.3661 16.4258 25.2347C21.5348 22.5802 23.4634 13.9595 23.9892 11.095C24.0644 10.5957 23.7388 10.1226 23.2378 10.0438H23.2382ZM16.0002 20.9769C15.3992 20.9769 14.9232 20.4776 14.9232 19.8467C14.9232 19.216 15.399 18.7165 16.0002 18.7165C16.6012 18.7165 17.0772 19.2158 17.0772 19.8467C17.0772 20.4512 16.6014 20.9769 16.0002 20.9769ZM16.7266 17.4552C16.7266 17.5604 16.6515 17.6392 16.5513 17.6392H15.4493C15.3491 17.6392 15.2739 17.5604 15.2739 17.4552L14.8982 11.2526C14.8982 11.1474 14.9733 11.0686 15.0736 11.0686H16.952C17.0522 11.0686 17.1273 11.1474 17.1273 11.2526L16.7266 17.4552Z" fill="#F04C59"/>
</svg>
