<?xml version="1.0" encoding="UTF-8"?>
<svg width="331px" height="74px" viewBox="0 0 331 74" version="1.1" xmlns="http://www.w3.org/2000/svg" xmlns:xlink="http://www.w3.org/1999/xlink">
    <title>LogoGMM-horizontal-compacto-fondoblanco</title>
    <g id="LogoGMM-horizontal-compacto-fondoblanco" stroke="none" stroke-width="1" fill="none" fill-rule="evenodd">
        <g id="Group-22" transform="translate(0.000000, 1.000000)">
            <path d="M135.969,32.0601 C135.969,30.8131 137.037,29.7441 138.284,29.7441 L138.819,29.7441 C139.828,29.7441 140.54,30.2781 141.016,30.9911 L155.862,53.3191 L170.707,30.9911 C171.182,30.2181 171.954,29.7441 172.904,29.7441 L173.439,29.7441 C174.686,29.7441 175.755,30.8131 175.755,32.0601 L175.755,69.4111 C175.755,70.7171 174.686,71.7861 173.439,71.7861 C172.132,71.7861 171.064,70.6581 171.064,69.4111 L171.064,38.4141 L157.762,57.9501 C157.228,58.7221 156.633,59.1371 155.802,59.1371 C154.971,59.1371 154.318,58.7221 153.783,57.9501 L140.54,38.4721 L140.54,69.4701 C140.54,70.7771 139.532,71.7861 138.226,71.7861 C136.978,71.7861 135.969,70.7771 135.969,69.4701 L135.969,32.0601 Z" id="Fill-1" fill="#878787"></path>
            <path d="M219.386,50.8247 L219.386,50.7057 C219.386,41.2627 212.498,33.5437 202.996,33.5437 C193.495,33.5437 186.726,41.1447 186.726,50.5867 L186.726,50.7057 C186.726,60.1467 193.615,67.8667 203.115,67.8667 C212.616,67.8667 219.386,60.2657 219.386,50.8247 M181.857,50.8247 L181.857,50.7057 C181.857,39.2447 190.467,29.2097 203.115,29.2097 C215.764,29.2097 224.255,39.1267 224.255,50.5867 L224.255,50.7057 C224.255,62.1667 215.646,72.2017 202.996,72.2017 C190.349,72.2017 181.857,62.2847 181.857,50.8247" id="Fill-3" fill="#878787"></path>
            <path d="M241.8362,70.0044 L225.8042,33.0094 C225.6242,32.6524 225.5652,32.3564 225.5652,31.9414 C225.5652,30.7534 226.6352,29.6254 227.9402,29.6254 C229.1292,29.6254 229.9602,30.3974 230.3752,31.4064 L244.7462,65.8484 L259.1762,31.2874 C259.5922,30.4564 260.4232,29.6254 261.4912,29.6254 C262.7982,29.6254 263.8082,30.6934 263.8082,31.8814 C263.8082,32.2374 263.7482,32.5344 263.6292,32.8314 L247.5362,70.0044 C247.0032,71.1924 246.1722,71.9644 244.8062,71.9644 L244.5682,71.9644 C243.2022,71.9644 242.3122,71.1924 241.8362,70.0044" id="Fill-5" fill="#878787"></path>
            <path d="M270.3372,32.0005 C270.3372,30.6935 271.4062,29.6255 272.6522,29.6255 C273.9602,29.6255 275.0282,30.6935 275.0282,32.0005 L275.0282,69.4105 C275.0282,70.7175 273.9602,71.7855 272.6522,71.7855 C271.4062,71.7855 270.3372,70.7175 270.3372,69.4105 L270.3372,32.0005 Z" id="Fill-7" fill="#878787"></path>
            <path d="M286.1194,32.0005 C286.1194,30.6935 287.1874,29.6255 288.4344,29.6255 C289.7414,29.6255 290.8104,30.6935 290.8104,32.0005 L290.8104,67.1545 L314.0324,67.1545 C315.2214,67.1545 315.2984,68.1635 315.2984,69.3515 C315.2984,70.5385 315.2214,71.4885 314.0324,71.4885 L288.4344,71.4885 C287.1874,71.4885 286.1194,70.4205 286.1194,69.1135 L286.1194,32.0005 Z" id="Fill-9" fill="#878787"></path>
            <path d="M314.2463,30.1968 C306.5913,30.1968 300.5953,24.1428 300.5953,16.4158 C300.5953,8.6888 306.6303,2.6348 314.3333,2.6348 C321.9873,2.6348 327.9833,8.6498 327.9833,16.3288 L327.9833,16.4158 C327.9833,24.1428 321.9493,30.1968 314.2463,30.1968 M314.3333,0.0008 C305.2573,0.0008 297.8733,7.4028 297.8733,16.5038 C297.8733,25.5068 305.2183,32.8318 314.2463,32.8318 C323.3223,32.8318 330.7063,25.4288 330.7063,16.3288 C330.7063,7.3258 323.3603,0.0008 314.3333,0.0008" id="Fill-11" fill="#878787"></path>
            <path d="M320.4553,15.3257 L314.9613,15.3257 C314.1363,15.3257 313.4653,16.0087 313.4653,16.8467 C313.4653,17.6587 314.1503,18.3447 314.9613,18.3447 L318.9103,18.3447 L318.9103,21.6357 C317.7263,22.5027 316.1313,23.0177 314.6193,23.0177 C310.9583,23.0177 308.4983,20.4007 308.4983,16.5057 C308.4983,12.9357 311.0693,10.1397 314.3513,10.1397 C316.5223,10.1397 317.7683,10.8637 318.7013,11.5737 C318.9143,11.7327 319.2493,11.9467 319.6983,11.9467 C320.5783,11.9467 321.2923,11.2217 321.2923,10.3277 C321.2923,9.8247 321.0573,9.3517 320.6403,9.0287 C318.7713,7.6577 316.9123,7.0737 314.4243,7.0737 C309.2593,7.0737 305.2123,11.2597 305.2123,16.6027 C305.2123,22.1567 309.0503,26.0357 314.5463,26.0357 C317.5123,26.0357 319.7543,24.8457 321.1043,23.8517 C321.7143,23.4457 322.0503,22.8397 322.0503,22.1457 L322.0503,16.9447 C322.0503,16.0527 321.3343,15.3257 320.4553,15.3257" id="Fill-14" fill="#898888"></path>
            <path d="M0.0003,33.4654 C0.0003,30.8384 2.0763,28.7614 4.7043,28.7614 L5.7433,28.7614 C7.7593,28.7614 9.1643,29.8004 10.0203,31.2044 L21.3843,49.7184 L32.8103,31.1444 C33.7873,29.5554 35.1313,28.7614 37.0253,28.7614 L38.0633,28.7614 C40.6913,28.7614 42.7693,30.8384 42.7693,33.4654 L42.7693,67.4364 C42.7693,70.0644 40.6913,72.1414 38.0633,72.1414 C35.4983,72.1414 33.4203,70.0024 33.4203,67.4364 L33.4203,46.1124 L25.1723,58.8214 C24.1953,60.2884 22.9733,61.2044 21.2623,61.2044 C19.5523,61.2044 18.3293,60.2884 17.3523,58.8214 L9.2253,46.2964 L9.2253,67.5584 C9.2253,70.1244 7.1483,72.1414 4.5813,72.1414 C2.0163,72.1414 0.0003,70.1244 0.0003,67.5584 L0.0003,33.4654 Z" id="Fill-16" fill="#FFE000"></path>
            <path d="M74.0549,53.8726 L68.1289,39.7586 L62.2009,53.8726 L74.0549,53.8726 Z M47.5999,65.7266 L62.5079,32.0606 C63.5459,29.7386 65.4399,28.3336 68.0069,28.3336 L68.5559,28.3336 C71.1219,28.3336 72.9549,29.7386 73.9929,32.0606 L88.9019,65.7266 C89.2079,66.3976 89.3909,67.0096 89.3909,67.6196 C89.3909,70.1246 87.4349,72.1416 84.9299,72.1416 C82.7309,72.1416 81.2649,70.8576 80.4089,68.9026 L77.5379,62.1826 L58.7199,62.1826 L55.7259,69.2086 C54.9309,71.0416 53.3429,72.1416 51.3869,72.1416 C48.9439,72.1416 47.0499,70.1856 47.0499,67.7416 C47.0499,67.0696 47.2939,66.3976 47.5999,65.7266 L47.5999,65.7266 Z" id="Fill-18" fill="#FFE000"></path>
            <path d="M92.8762,67.2534 C91.8372,66.5204 91.1052,65.1754 91.1052,63.7094 C91.1052,61.2654 93.0602,59.3714 95.5042,59.3714 C96.7252,59.3714 97.5802,59.7994 98.1912,60.2274 C101.4302,62.6094 104.9742,64.0754 109.1282,64.0754 C112.9782,64.0754 115.2992,62.5484 115.2992,60.0434 L115.2992,59.9214 C115.2992,57.5384 113.8332,56.3154 106.6852,54.4834 C98.0692,52.2834 92.5102,49.9004 92.5102,41.4084 L92.5102,41.2864 C92.5102,33.5264 98.7412,28.3944 107.4792,28.3944 C112.6722,28.3944 117.1932,29.7384 121.0422,32.1834 C122.0812,32.7934 123.1202,34.0764 123.1202,35.9094 C123.1202,38.3544 121.1652,40.2474 118.7222,40.2474 C117.8042,40.2474 117.0712,40.0034 116.3382,39.5754 C113.2222,37.7424 110.2892,36.7034 107.3562,36.7034 C103.7512,36.7034 101.8572,38.3544 101.8572,40.4314 L101.8572,40.5534 C101.8572,43.3634 103.6902,44.2794 111.0842,46.1744 C119.7602,48.4354 124.6472,51.5504 124.6472,59.0044 L124.6472,59.1274 C124.6472,67.6194 118.1712,72.3854 108.9452,72.3854 C103.3242,72.3854 97.6432,70.6744 92.8762,67.2534" id="Fill-20" fill="#FFE000"></path>
        </g>
    </g>
</svg>