<svg width="32" height="32" viewBox="0 0 32 32" fill="none" xmlns="http://www.w3.org/2000/svg">
<circle cx="16" cy="16" r="16" fill="#FDE8BE"/>
<path d="M16.0004 6.66663C14.5973 6.66663 13.45 7.78585 13.45 9.15479C13.4507 9.52616 13.6825 9.83254 13.8438 10.1626H9.72488C9.50799 10.163 9.33273 10.3352 9.33338 10.5468V15.2265C9.33338 15.5729 9.76781 15.7412 10.011 15.4887C10.3443 15.1432 10.8071 14.9473 11.2932 14.947C12.2723 14.947 13.0592 15.7108 13.0592 16.6662C13.0592 17.6216 12.2723 18.3892 11.2932 18.3892C10.8067 18.3886 10.344 18.1926 10.011 17.8469C9.76748 17.5943 9.3324 17.763 9.33338 18.11V22.7887C9.3337 22.9993 9.50865 23.17 9.72488 23.1706H13.8438C13.6819 23.5013 13.451 23.8093 13.45 24.1817C13.45 25.5503 14.5972 26.6666 16.0004 26.6666C17.4034 26.6666 18.5478 25.5503 18.5478 24.1817C18.5471 23.8093 18.3159 23.5017 18.154 23.1706H22.2729C22.4898 23.1716 22.6661 23.0003 22.6667 22.7887V18.11C22.6674 17.763 22.2326 17.5943 21.989 17.8469C21.6561 18.1926 21.1904 18.3886 20.7039 18.3892C19.7248 18.3892 18.9418 17.6215 18.9418 16.6662C18.9418 15.7109 19.7248 14.947 20.7039 14.947C21.1901 14.9473 21.6557 15.1432 21.989 15.4887C22.2326 15.7409 22.667 15.5728 22.6667 15.2265V10.5468C22.6677 10.3342 22.4908 10.162 22.2729 10.1626H18.1562C18.3172 9.83256 18.5471 9.52586 18.5478 9.15479C18.5478 7.78617 17.4035 6.66663 16.0004 6.66663Z" fill="#ECA313"/>
</svg>
