<svg xmlns="http://www.w3.org/2000/svg" viewBox="0 0 100 125" x="0px" y="0px">
  <title>•SET17-Abstract-Concepts-Flat-v1</title>
  <path
    d="M83.653,40.047,50.7,13.2a1.7,1.7,0,0,0-2.148,0L15.6,40.047a1.7,1.7,0,0,0,1.074,3.018h5.172V73.089a6.71,6.71,0,1,0,3.4,0V43.065H39.084V73.089a6.709,6.709,0,1,0,3.4,0V43.065H56.322V73.089a6.709,6.709,0,1,0,3.4,0V43.065H73.56V73.089a6.71,6.71,0,1,0,3.4,0V43.065h5.619a1.7,1.7,0,0,0,1.074-3.018Zm-56.8,39.525a3.31,3.31,0,1,1-3.309-3.309A3.312,3.312,0,0,1,26.855,79.572Zm17.238,0a3.309,3.309,0,1,1-3.309-3.309A3.313,3.313,0,0,1,44.093,79.572Zm17.238,0a3.309,3.309,0,1,1-3.309-3.309A3.312,3.312,0,0,1,61.331,79.572Zm17.238,0a3.309,3.309,0,1,1-3.309-3.309A3.312,3.312,0,0,1,78.569,79.572ZM21.451,39.665,49.626,16.709,77.8,39.665Zm21.466-9.317a6.71,6.71,0,1,0,6.709-6.709A6.717,6.717,0,0,0,42.917,30.348Zm10.019,0a3.31,3.31,0,1,1-3.31-3.309A3.314,3.314,0,0,1,52.936,30.348Z" />
  <text x="0" y="115" fill="#000000" font-size="5px" font-weight="bold"
    font-family="'Helvetica Neue', Helvetica, Arial-Unicode, Arial, Sans-serif">Created by Max
    Hancock</text>
  <text x="0" y="120" fill="#000000" font-size="5px" font-weight="bold"
    font-family="'Helvetica Neue', Helvetica, Arial-Unicode, Arial, Sans-serif">from the Noun
    Project</text>
</svg>
