<svg width="32" height="32" viewBox="0 0 32 32" fill="none" xmlns="http://www.w3.org/2000/svg">
<circle cx="16" cy="16" r="16" fill="#FAC2D9"/>
<path d="M24.0805 6.66663H7.91915C7.22815 6.66663 6.66663 7.22815 6.66663 7.91915V24.0809C6.66663 24.7718 7.22815 25.3333 7.91915 25.3333H24.0809C24.7718 25.3333 25.3333 24.7718 25.3333 24.0806V7.91923C25.3333 7.22823 24.7718 6.6667 24.0806 6.6667L24.0805 6.66663ZM23.5614 13.0846C23.3534 13.1483 23.1345 13.0298 23.0715 12.8225L22.772 11.8344L19.7655 21.2071C19.718 21.3552 19.587 21.4615 19.4326 21.4773C19.2731 21.4952 19.1273 21.4167 19.0507 21.2818L17.156 17.9661L15.8462 19.0613C15.7427 19.1472 15.602 19.1744 15.4751 19.1344C15.3467 19.0939 15.2484 18.9904 15.2139 18.8602L14.4512 15.9774L12.0401 21.6403C11.9779 21.7877 11.8278 21.8753 11.6707 21.8791C11.5104 21.8756 11.3682 21.7749 11.311 21.6252L10.2944 18.9322L8.90252 21.664C8.83323 21.8006 8.69558 21.8787 8.55255 21.8787C8.49265 21.8787 8.43122 21.8651 8.37441 21.8359C8.18118 21.7375 8.10419 21.501 8.20288 21.3078L9.99801 17.7833C10.0688 17.6449 10.2162 17.562 10.3698 17.5694C10.525 17.5776 10.6612 17.6772 10.716 17.8225L11.7003 20.4312L14.176 14.6162C14.2417 14.4622 14.3926 14.3649 14.566 14.3782C14.7332 14.3902 14.8744 14.5073 14.9172 14.6698L15.8156 18.0625L17.0118 17.0618C17.1008 16.9876 17.219 16.956 17.3334 16.9767C17.4478 16.9973 17.5473 17.0674 17.6049 17.1684L19.2896 20.1173L22.4089 10.3938C22.4609 10.2312 22.6118 10.1211 22.783 10.1211H22.7861C22.9579 10.1226 23.1093 10.2355 23.159 10.3999L23.824 12.5948C23.8865 12.8015 23.7695 13.0214 23.5615 13.0844L23.5614 13.0846Z" fill="#E0528D"/>
</svg>
